<svg xmlns="http://www.w3.org/2000/svg" width="65.081" height="65.081" viewBox="0 0 65.081 65.081">
  <g id="Grupo_2536" data-name="Grupo 2536" transform="translate(-1107.46 -3187.821)">
    <circle id="Elipse_67" data-name="Elipse 67" cx="32.541" cy="32.541" r="32.541" transform="translate(1107.46 3187.821)" fill="#e6f2ff"/>
    <path id="Caminho_1853" data-name="Caminho 1853" d="M123.776,45.5H115.2a.62.62,0,0,0-.621.621,10.047,10.047,0,1,1-20.095,0,.62.62,0,0,0-.62-.621H85.293a.62.62,0,0,0-.62.621v2.6a.621.621,0,0,0,.523.613l3.812.61A15.855,15.855,0,0,0,90.852,54.4l-2.264,3.127a.621.621,0,0,0,.064.8l3.679,3.678a.62.62,0,0,0,.8.064l3.127-2.264a15.838,15.838,0,0,0,4.451,1.844l.61,3.812a.621.621,0,0,0,.613.523h5.2a.621.621,0,0,0,.613-.523l.61-3.812a15.856,15.856,0,0,0,4.451-1.844l3.127,2.264a.621.621,0,0,0,.8-.064l3.679-3.678a.62.62,0,0,0,.064-.8L118.219,54.4a15.829,15.829,0,0,0,1.844-4.451l3.812-.61a.621.621,0,0,0,.523-.613v-2.6a.622.622,0,0,0-.622-.621Zm-.621,2.692-3.7.592a.62.62,0,0,0-.508.481,14.629,14.629,0,0,1-2,4.82.62.62,0,0,0,.019.7l2.2,3.037-2.93,2.93-3.037-2.2a.619.619,0,0,0-.7-.019,14.627,14.627,0,0,1-4.82,2,.621.621,0,0,0-.481.508l-.592,3.7h-4.143l-.592-3.7a.62.62,0,0,0-.481-.508,14.626,14.626,0,0,1-4.82-2,.62.62,0,0,0-.7.019l-3.037,2.2-2.93-2.93,2.2-3.037a.62.62,0,0,0,.019-.7,14.627,14.627,0,0,1-2-4.82.621.621,0,0,0-.508-.481l-3.7-.592V46.744h7.349a11.288,11.288,0,0,0,22.542,0h7.349v1.451ZM89.406,43.5h7.215v.862A2.584,2.584,0,0,0,99.2,46.948h10.665a2.584,2.584,0,0,0,2.581-2.581v-.861h7.215a1.875,1.875,0,0,0,1.791-2.43,6.076,6.076,0,0,0-3.617-3.887,3.4,3.4,0,1,0-4.439,0,6.045,6.045,0,0,0-2.454,1.761,7.943,7.943,0,0,0-3.867-2.819,4.329,4.329,0,1,0-5.085,0,7.945,7.945,0,0,0-3.867,2.819,6.042,6.042,0,0,0-2.454-1.761,3.395,3.395,0,1,0-4.437,0,6.081,6.081,0,0,0-1.441.8,6.157,6.157,0,0,0-2.178,3.083A1.874,1.874,0,0,0,89.406,43.5Zm24.058-8.883a2.154,2.154,0,1,1,2.156,2.154h0a2.156,2.156,0,0,1-2.152-2.154Zm2.152,3.4h0a4.845,4.845,0,0,1,4.649,3.425.634.634,0,0,1-.605.821h-7.3a7.921,7.921,0,0,0-.726-2.183,4.828,4.828,0,0,1,3.977-2.063Zm-14.17-5.387a3.088,3.088,0,1,1,3.09,3.088h0a3.091,3.091,0,0,1-3.086-3.088Zm3.087,4.329h0a6.7,6.7,0,0,1,6.67,5.959v1.449a1.342,1.342,0,0,1-1.34,1.34H99.2a1.342,1.342,0,0,1-1.34-1.34V42.917a6.7,6.7,0,0,1,6.671-5.959ZM93.451,32.468A2.154,2.154,0,1,1,91.3,34.622,2.157,2.157,0,0,1,93.451,32.468ZM88.8,41.442a4.869,4.869,0,0,1,8.629-1.362,7.909,7.909,0,0,0-.726,2.183h-7.3a.634.634,0,0,1-.605-.821Z" transform="translate(1035.465 3173.218)" fill="#0f5197"/>
  </g>
</svg>
