<svg xmlns="http://www.w3.org/2000/svg" width="65.081" height="65.081" viewBox="0 0 65.081 65.081">
  <g id="Grupo_2535" data-name="Grupo 2535" transform="translate(-1467.459 -3187.821)">
    <circle id="Elipse_66" data-name="Elipse 66" cx="32.541" cy="32.541" r="32.541" transform="translate(1467.459 3187.821)" fill="#e6f2ff"/>
    <path id="Caminho_2043" data-name="Caminho 2043" d="M94.918,49.752m27.3-9.894a1.536,1.536,0,0,1-.852.821l-2.16.845a1.548,1.548,0,0,1-1.882-.633l-2.456,1.047a2.211,2.211,0,0,1-.242,1.428,2.235,2.235,0,0,1-1.357,1.078l-.018,0a2.234,2.234,0,0,1-2.59,2.962,2.211,2.211,0,0,1-.271,1.175,2.242,2.242,0,0,1-2.256,1.142,2.24,2.24,0,0,1-3.314,2.119l-.775-.426a2.23,2.23,0,0,1-1.172.838,2.261,2.261,0,0,1-.656.1,2.238,2.238,0,0,1-2.108-1.5,2.323,2.323,0,0,1-.295.112,2.261,2.261,0,0,1-.656.1,2.237,2.237,0,0,1-2.051-1.356,2.275,2.275,0,0,1-1.135.307,2.245,2.245,0,0,1-2.2-2.659c-.044,0-.089,0-.133,0a2.244,2.244,0,0,1-1.97-3.3l.565-1.057a4.447,4.447,0,0,1-.275-1.033c-.118-.65-.2-.968-.478-1.074-.2-.078-.811-.346-1.95-.857a1.553,1.553,0,0,1-1.218.59,1.531,1.531,0,0,1-.641-.14l-2.109-.964a1.548,1.548,0,0,1-.764-2.05l4.335-9.485a1.548,1.548,0,0,1,2.05-.764l2.109.964a1.548,1.548,0,0,1,.764,2.05l-.131.287,1.909.881.042.022a3.363,3.363,0,0,0,2.545.006,5.838,5.838,0,0,1,4.775.422,5.905,5.905,0,0,1,6.02-.191c1.063.435,1.748.684,2.409.34l1.813-.97-.041-.1a1.549,1.549,0,0,1,.877-2l2.16-.845a1.549,1.549,0,0,1,2,.877l3.8,9.711a1.541,1.541,0,0,1-.025,1.184ZM88.654,39.24l4.335-9.485a.374.374,0,0,0-.182-.489L90.7,28.3a.372.372,0,0,0-.489.182l-4.335,9.485a.374.374,0,0,0,.182.489l2.109.964a.375.375,0,0,0,.489-.182Zm5.3,6.9a1.055,1.055,0,0,0,.628-.511l1.051-1.965a1.064,1.064,0,1,0-1.876-1L92.709,44.62a1.079,1.079,0,0,0,.436,1.44,1.058,1.058,0,0,0,.81.077Zm2.958,2.14,1.422-2.659a1.064,1.064,0,0,0-1.874-1.007l-1.424,2.662a1.063,1.063,0,0,0,1.875,1Zm3.187,1.05,1.15-2.15a1.064,1.064,0,1,0-1.876-1l-1.15,2.15a1.064,1.064,0,0,0,1.876,1Zm3.059,1.29,1.006-1.882a1.064,1.064,0,1,0-1.876-1l-1.006,1.882a1.065,1.065,0,0,0,.437,1.439,1.068,1.068,0,0,0,1.439-.436ZM106.491,49l-1.017-.559-.015-.009a2.228,2.228,0,0,1-.256.858l-.589,1.1.77.423A1.063,1.063,0,0,0,106.491,49Zm6.674-7.652-5.716-3.258c-.977-.557-2.193-.065-3.6.5-2.122.859-4.763,1.928-7-1.15a.589.589,0,0,1,.184-.857,19.775,19.775,0,0,0,4.237-3.163c.285-.288.574-.553.864-.8a4.933,4.933,0,0,0-3.441-.048,4.416,4.416,0,0,1-3.372-.113l-1.885-.87L90.063,38.99c.673.3,1.618.724,1.846.812a2.112,2.112,0,0,1,1.179,1.8,2.238,2.238,0,0,1,3.75.909,2.288,2.288,0,0,1,.086.422,2.233,2.233,0,0,1,2.615,1.536c.01.033.019.066.028.1l.1-.031a2.234,2.234,0,0,1,2.792,1.491c.01.033.019.066.028.1l.1-.031a2.237,2.237,0,0,1,2.368.7l2.966,1.645a1.064,1.064,0,1,0,1.02-1.867L105.4,44.586a.589.589,0,0,1,.578-1.026l4.66,2.6a1.063,1.063,0,0,0,1.031-1.86c-.033-.017-4.2-2.365-4.2-2.365a.589.589,0,0,1,.579-1.026l4.1,2.314a1.027,1.027,0,0,0,.792.09,1.062,1.062,0,0,0,.647-.513,1.08,1.08,0,0,0-.427-1.448Zm3.706-1.546-3-7.66-1.7.907c-1.185.616-2.313.155-3.4-.291-1.49-.609-3.032-1.239-5.26.3a10.021,10.021,0,0,0-1.4,1.195,20.272,20.272,0,0,1-3.894,3.005c1.575,1.709,3.262,1.026,5.191.245,1.55-.627,3.152-1.276,4.626-.437l5.716,3.258a2.268,2.268,0,0,1,.635.537Zm4.274-.7-3.8-9.711a.378.378,0,0,0-.479-.209l-2.16.845a.374.374,0,0,0-.209.479l3.8,9.711a.372.372,0,0,0,.479.209l2.16-.845a.372.372,0,0,0,.209-.479Zm-4.8-8.951a.82.82,0,1,0,.82.82A.822.822,0,0,0,116.34,30.155ZM91.169,29.3a.82.82,0,1,0,.773.865A.82.82,0,0,0,91.169,29.3Zm.082-3.87a1.471,1.471,0,0,1-.226-1.338,4.571,4.571,0,0,1,2.523-2.842,2.614,2.614,0,1,1,3.733,0,4.544,4.544,0,0,1,1.538,1.116,5.935,5.935,0,0,1,2.553-1.887,3.3,3.3,0,1,1,4.264,0,5.935,5.935,0,0,1,2.553,1.887,4.544,4.544,0,0,1,1.538-1.116,2.614,2.614,0,1,1,3.733,0,4.572,4.572,0,0,1,2.523,2.842,1.5,1.5,0,0,1-1.437,1.95h-5.13v.493a2.022,2.022,0,0,1-2.02,2.019H99.612a2.022,2.022,0,0,1-2.019-2.019v-.493H92.462a1.471,1.471,0,0,1-1.211-.612Zm20.343-4.571h0a1.436,1.436,0,1,0-1.437-1.436,1.438,1.438,0,0,0,1.437,1.436Zm-2.746,2.564a5.915,5.915,0,0,1,.484,1.442h5.215a.327.327,0,0,0,.312-.423,3.4,3.4,0,0,0-3.264-2.4h0a3.388,3.388,0,0,0-2.746,1.386ZM103.5,20.087h0a2.118,2.118,0,1,0-2.119-2.118,2.121,2.121,0,0,0,2.119,2.118Zm-4.733,5.4v1.05a.843.843,0,0,0,.842.842H107.4a.843.843,0,0,0,.842-.842v-1.05a4.753,4.753,0,0,0-4.733-4.221h0a4.754,4.754,0,0,0-4.733,4.222Zm-3.356-4.627h0a1.436,1.436,0,1,0-1.437-1.436,1.438,1.438,0,0,0,1.437,1.436ZM92.2,24.731a.3.3,0,0,0,.263.133h5.215a5.892,5.892,0,0,1,.484-1.442,3.39,3.39,0,0,0-2.746-1.386h0a3.4,3.4,0,0,0-3.264,2.4.3.3,0,0,0,.049.29Z" transform="translate(1396.495 3186.847)" fill="#0f5197"/>
  </g>
</svg>
