<svg xmlns="http://www.w3.org/2000/svg" width="65.081" height="65.081" viewBox="0 0 65.081 65.081">
  <g id="Grupo_2537" data-name="Grupo 2537" transform="translate(-747.459 -3187.821)">
    <circle id="Elipse_68" data-name="Elipse 68" cx="32.541" cy="32.541" r="32.541" transform="translate(747.459 3187.821)" fill="#e6f2ff"/>
    <path id="Caminho_1891" data-name="Caminho 1891" d="M116.279,38.3a7.031,7.031,0,1,0,7.031,7.031A7.039,7.039,0,0,0,116.279,38.3Zm0,1.178a5.848,5.848,0,0,1,4.78,9.224,5.074,5.074,0,0,0-2.814-2.946,2.863,2.863,0,1,0-3.932,0,5.075,5.075,0,0,0-2.814,2.946,5.848,5.848,0,0,1,4.78-9.224Zm0,5.885a1.686,1.686,0,1,1,1.686-1.686A1.687,1.687,0,0,1,116.279,45.367Zm-3.844,4.376a3.909,3.909,0,0,1,7.688,0,5.836,5.836,0,0,1-7.688,0ZM92.8,38.3a7.031,7.031,0,1,0,7.031,7.031A7.039,7.039,0,0,0,92.8,38.3ZM88.96,49.743a3.909,3.909,0,0,1,7.688,0,5.836,5.836,0,0,1-7.688,0ZM92.8,45.367a1.686,1.686,0,1,1,1.686-1.686A1.687,1.687,0,0,1,92.8,45.367Zm4.78,3.339A5.075,5.075,0,0,0,94.77,45.76a2.863,2.863,0,1,0-3.932,0,5.075,5.075,0,0,0-2.814,2.946,5.852,5.852,0,1,1,9.56,0Zm11.474-9.232-4.516-2.893-4.516,2.893a.589.589,0,0,1-.635-.992l4.563-2.923V31.126a.589.589,0,1,1,1.178,0V35.56l4.563,2.923a.589.589,0,1,1-.635.991Zm-4.405-10.741a7.031,7.031,0,1,0-7.031-7.03,7.039,7.039,0,0,0,7.031,7.03Zm-3.844-2.623a3.909,3.909,0,0,1,7.688,0,5.836,5.836,0,0,1-7.688,0Zm3.844-4.376a1.686,1.686,0,1,1,1.686-1.686A1.687,1.687,0,0,1,104.652,21.735Zm0-5.885a5.848,5.848,0,0,1,4.779,9.224,5.075,5.075,0,0,0-2.814-2.946,2.863,2.863,0,1,0-3.932,0,5.074,5.074,0,0,0-2.814,2.946,5.848,5.848,0,0,1,4.78-9.224Z" transform="translate(675.458 3186.843)" fill="#0f5197"/>
  </g>
</svg>
