<svg xmlns="http://www.w3.org/2000/svg" width="65.081" height="65.081" viewBox="0 0 65.081 65.081">
  <g id="Grupo_2538" data-name="Grupo 2538" transform="translate(-387.459 -3187.821)">
    <circle id="Elipse_69" data-name="Elipse 69" cx="32.541" cy="32.541" r="32.541" transform="translate(387.459 3187.821)" fill="#e6f2ff"/>
    <g id="Grupo_2524" data-name="Grupo 2524" transform="translate(-10062.947 11276.884)">
      <path id="Caminho_2005" data-name="Caminho 2005" d="M121.758,47.666H109.592a.588.588,0,0,0-.588.588v3.692H97.427a.588.588,0,0,0-.588.588v3.413H85.261a.588.588,0,0,0-.588.588V68.176a.588.588,0,0,0,.588.588h36.5a.588.588,0,0,0,.588-.588V48.254a.588.588,0,0,0-.588-.588ZM85.85,57.126H96.837V67.588H85.85Zm12.166-4H109V67.587H98.015Zm23.154,14.464H110.181V48.842H121.17ZM87.835,53.123h7.019a1.674,1.674,0,0,0,1.6-2.173,5.322,5.322,0,0,0-3.091-3.374,3,3,0,1,0-4.041,0,5.321,5.321,0,0,0-3.091,3.374,1.674,1.674,0,0,0,1.6,2.173Zm3.509-9.575a1.818,1.818,0,1,1-1.818,1.818A1.821,1.821,0,0,1,91.344,43.548ZM87.358,51.3a4.174,4.174,0,0,1,7.973,0,.5.5,0,0,1-.477.647H87.835a.5.5,0,0,1-.477-.647ZM100,48.843h7.019a1.674,1.674,0,0,0,1.6-2.173A5.322,5.322,0,0,0,105.53,43.3a3,3,0,1,0-4.041,0A5.321,5.321,0,0,0,98.4,46.67a1.674,1.674,0,0,0,1.6,2.173Zm1.691-7.757A1.818,1.818,0,1,1,103.51,42.9h0a1.82,1.82,0,0,1-1.818-1.818Zm-2.168,5.932a4.152,4.152,0,0,1,3.986-2.937h0a4.152,4.152,0,0,1,3.986,2.937.5.5,0,0,1-.477.647H100a.5.5,0,0,1-.477-.647Zm12.643-2.456h7.019a1.674,1.674,0,0,0,1.6-2.173,5.322,5.322,0,0,0-3.091-3.374,3,3,0,1,0-4.041,0,5.321,5.321,0,0,0-3.091,3.374,1.674,1.674,0,0,0,1.6,2.173Zm1.691-7.757a1.818,1.818,0,1,1,1.819,1.818h0a1.82,1.82,0,0,1-1.818-1.818Zm-2.168,5.932a4.152,4.152,0,0,1,3.986-2.937h0a4.152,4.152,0,0,1,3.986,2.937.5.5,0,0,1-.477.647h-7.019a.5.5,0,0,1-.477-.647Z" transform="translate(10379.438 -8107.809)" fill="#0f5197"/>
    </g>
  </g>
</svg>
