<svg xmlns="http://www.w3.org/2000/svg" width="22.931" height="22.931" viewBox="0 0 22.931 22.931">
  <path id="Icon_awesome-arrow-alt-circle-down" data-name="Icon awesome-arrow-alt-circle-down" d="M.563,12.028A11.465,11.465,0,1,1,12.028,23.494,11.463,11.463,0,0,1,.563,12.028Zm13.5,5.363V12.028H17.34a.555.555,0,0,0,.393-.948L12.421,5.8a.55.55,0,0,0-.781,0L6.328,11.08a.555.555,0,0,0,.393.948H9.994v5.363a.556.556,0,0,0,.555.555h2.959A.556.556,0,0,0,14.062,17.391Z" transform="translate(-0.563 -0.563)" fill="#fff"/>
</svg>
