<svg xmlns="http://www.w3.org/2000/svg" width="55" height="55" viewBox="0 0 55 55">
  <g id="Grupo_3027" data-name="Grupo 3027" transform="translate(-260 -2125.229)">
    <circle id="Elipse_48" data-name="Elipse 48" cx="27.5" cy="27.5" r="27.5" transform="translate(260 2125.229)" fill="#e6f2ff"/>
    <g id="Grupo_1644" data-name="Grupo 1644" transform="translate(-1.293 73.229)">
      <path id="noun-paper-4860606" d="M165.7,30.8l-.009,0a.481.481,0,0,0-.126.02l-.021.006a.48.48,0,0,0-.119.06l-.018.014a.485.485,0,0,0-.041.032l-5.858,5.591a.491.491,0,0,0-.052.061l-.006.007a.485.485,0,0,0-.061.119c0,.01-.007.019-.01.029a.478.478,0,0,0-.021.128v14.96a1.957,1.957,0,0,0,1.951,1.95h1.152v1.028a1.957,1.957,0,0,0,1.95,1.95h12.853a1.957,1.957,0,0,0,1.95-1.95V35.73a1.957,1.957,0,0,0-1.95-1.95h-1.153V32.751a1.956,1.956,0,0,0-1.95-1.95Zm.48.968h7.981a.969.969,0,0,1,.983.981v1.511h0V51.828a.972.972,0,0,1-.429.817.99.99,0,0,1-.553.165H161.312a.97.97,0,0,1-.983-.982V37.36H164.2l.1,0h0l.1-.007h0l.1-.012c.033-.005.064-.011.1-.018l.094-.021h0l.092-.026.091-.03.089-.035c.058-.024.115-.052.17-.082s.11-.063.161-.1.1-.071.15-.112.094-.083.137-.126.085-.09.125-.138.077-.1.112-.15.068-.105.1-.159.056-.111.081-.17.048-.118.067-.179h0q.028-.089.048-.186.01-.048.018-.1c.005-.033.01-.066.013-.1s.006-.064.008-.1h0V35.51c0-.035,0-.066,0-.094h0v0l.011-1.076Zm-.976.657-.03,2.978h0v0s0,0,0,.006,0,.021,0,.051,0,.029,0,.04,0,.034-.007.05,0,.035-.008.05c-.007.031-.015.063-.025.1a.922.922,0,0,1-.075.176c-.016.029-.032.056-.049.081s-.037.052-.057.076-.041.048-.063.07-.046.044-.069.063-.048.037-.075.056-.053.034-.08.049-.056.028-.086.041-.059.024-.089.033l-.046.013-.046.011-.049.008-.049.007-.051,0h-3.193Zm10.907,2.321h1.153a.969.969,0,0,1,.982.982V54.807a.969.969,0,0,1-.982.982H164.414a.969.969,0,0,1-.982-.982V53.778h10.731a1.932,1.932,0,0,0,.757-.154,1.958,1.958,0,0,0,.331-.18c.052-.035.1-.073.15-.112s.095-.082.139-.126h0c.044-.044.086-.09.126-.138v0c.039-.048.077-.1.111-.149l0,0c.034-.051.067-.1.1-.158l0-.005c.029-.054.056-.109.08-.165l0-.006c.024-.056.045-.114.063-.173h0l0-.009c.017-.055.032-.111.044-.168l0-.02c.011-.056.02-.113.026-.171,0-.008,0-.015,0-.023q.009-.087.009-.175s0-.008,0-.012Zm-8.008.357a.484.484,0,1,0,0,.968h4.041a.484.484,0,1,0,0-.968Zm-4.779,4.6h0a.484.484,0,1,0,0,.967h8.82a.484.484,0,1,0,0-.967Zm0,4.6h0a.484.484,0,0,0,0,.968h8.82a.484.484,0,1,0,0-.968Zm0,4.6h0a.484.484,0,0,0,0,.968h8.82a.484.484,0,1,0,0-.968Z" transform="translate(115.793 2037.721)" fill="#0f5197"/>
      <g id="Grupo_1642" data-name="Grupo 1642" transform="translate(-64.918 -512.998)">
        <circle id="Elipse_50" data-name="Elipse 50" cx="6.675" cy="6.675" r="6.675" transform="translate(354 2577.519)" fill="#fff"/>
        <path id="Icon_awesome-arrow-alt-circle-up" data-name="Icon awesome-arrow-alt-circle-up" d="M.563,7.236A6.674,6.674,0,1,0,7.236.563,6.673,6.673,0,0,0,.563,7.236ZM8.42,4.115V7.236h1.908a.323.323,0,0,1,.229.552L7.465,10.864a.32.32,0,0,1-.455,0L3.916,7.788a.323.323,0,0,1,.229-.552H6.052V4.115a.324.324,0,0,1,.323-.323H8.1A.324.324,0,0,1,8.42,4.115Z" transform="translate(353.438 2576.959)" fill="#f80"/>
      </g>
    </g>
  </g>
</svg>
