<svg xmlns="http://www.w3.org/2000/svg" width="55" height="55" viewBox="0 0 55 55">
  <g id="Grupo_1688" data-name="Grupo 1688" transform="translate(-260 -1921)">
    <circle id="Elipse_46" data-name="Elipse 46" cx="27.5" cy="27.5" r="27.5" transform="translate(260 1921)" fill="#e6f2ff"/>
    <g id="Grupo_1640" data-name="Grupo 1640" transform="translate(-696.292 -873.207)">
      <g id="Grupo_743" data-name="Grupo 743" transform="translate(968.502 2810.041)">
        <path id="Caminho_421" data-name="Caminho 421" d="M99.015,6.017H94.826V.427A.427.427,0,0,0,94.4,0H81.242a.427.427,0,0,0-.427.427v5.59H76.643a2.267,2.267,0,0,0-2.268,2.263V18.79a2.267,2.267,0,0,0,2.268,2.267h4.185V26.9a.427.427,0,0,0,.427.427H94.416a.427.427,0,0,0,.427-.427V21.041h4.181a2.268,2.268,0,0,0,2.255-2.251V8.28a2.267,2.267,0,0,0-2.263-2.263ZM81.656.829H94V6.017H81.656ZM94,26.5H81.656V17.334H94Zm6.448-7.712a1.439,1.439,0,0,1-1.439,1.439H94.83v-2.9h1.636a.427.427,0,0,0,0-.829H79.188a.427.427,0,0,0,0,.829h1.64v2.878H76.642A1.439,1.439,0,0,1,75.2,18.79V8.281a1.439,1.439,0,0,1,1.439-1.448H99.015a1.439,1.439,0,0,1,1.435,1.435Z" transform="translate(-74.375)" fill="#0f5197"/>
        <path id="Caminho_422" data-name="Caminho 422" d="M498.8,187.34a1.452,1.452,0,1,0,1.022.425,1.447,1.447,0,0,0-1.022-.425Zm0,2.067a.619.619,0,1,1,.619-.619.62.62,0,0,1-.619.619Z" transform="translate(-476.707 -178.197)" fill="#0f5197"/>
        <path id="Caminho_423" data-name="Caminho 423" d="M254.162,389.46h-9.69a.427.427,0,0,0,0,.829h9.69a.427.427,0,0,0,0-.829Z" transform="translate(-235.863 -370.452)" fill="#0f5197"/>
        <path id="Caminho_424" data-name="Caminho 424" d="M250.116,440.4h-9.69a.427.427,0,1,0,0,.829h9.69a.427.427,0,1,0,0-.829Z" transform="translate(-231.817 -418.896)" fill="#0f5197"/>
        <path id="Caminho_425" data-name="Caminho 425" d="M252.039,491.84h-7.567a.427.427,0,0,0,0,.829h7.567a.427.427,0,0,0,0-.829Z" transform="translate(-235.863 -467.836)" fill="#0f5197"/>
        <path id="Caminho_426" data-name="Caminho 426" d="M416.807,187.34a1.452,1.452,0,1,0,1.022.425,1.447,1.447,0,0,0-1.022-.425Zm0,2.067a.619.619,0,1,1,.619-.619.619.619,0,0,1-.619.619Z" transform="translate(-398.718 -178.197)" fill="#0f5197"/>
      </g>
      <path id="Caminho_1378" data-name="Caminho 1378" d="M263.137,163.42H255.09a1.737,1.737,0,0,0-1.737,1.737V173.2a1.737,1.737,0,0,0,1.737,1.737H257.6l0,2.375,2.83-2.375h2.7a1.737,1.737,0,0,0,1.737-1.737v-8.048a1.737,1.737,0,0,0-1.737-1.737Zm-4.563,3.069c0-.085.054-.131.163-.131h.743c.109,0,.163.046.163.131v3.855q0,.139-.163.139h-.743q-.163,0-.163-.139Zm.535,5.369a.529.529,0,1,1,.617-.525A.552.552,0,0,1,259.11,171.858Z" transform="translate(734.208 2642.621)" fill="#f80"/>
    </g>
  </g>
</svg>
