<svg xmlns="http://www.w3.org/2000/svg" width="51.902" height="55.471" viewBox="0 0 51.902 55.471">
  <g id="Grupo_3028" data-name="Grupo 3028" transform="translate(-968.502 -2861.244)">
    <g id="Grupo_743" data-name="Grupo 743" transform="translate(968.502 2871.244)">
      <path id="Caminho_421" data-name="Caminho 421" d="M115.37,10.011H108.4V.71a.71.71,0,0,0-.71-.71H85.8a.711.711,0,0,0-.71.71v9.3H78.148a3.772,3.772,0,0,0-3.773,3.766V31.261a3.772,3.772,0,0,0,3.773,3.772H85.11V44.76a.71.71,0,0,0,.71.71h21.9a.71.71,0,0,0,.71-.71V35.005h6.956a3.773,3.773,0,0,0,3.751-3.744V13.776a3.772,3.772,0,0,0-3.766-3.766ZM86.488,1.379h20.533v8.632H86.488Zm20.54,42.714H86.488V28.839h20.54Zm10.728-12.831a2.394,2.394,0,0,1-2.394,2.394h-6.956V28.839h2.721a.711.711,0,0,0,0-1.378H82.382a.711.711,0,0,0,0,1.378H85.11v4.789H78.147a2.394,2.394,0,0,1-2.394-2.366V13.777a2.394,2.394,0,0,1,2.394-2.409h37.222a2.394,2.394,0,0,1,2.387,2.387Z" transform="translate(-74.375)" fill="#0f5197"/>
      <path id="Caminho_422" data-name="Caminho 422" d="M499.758,187.34a2.416,2.416,0,1,0,1.7.708,2.407,2.407,0,0,0-1.7-.708Zm0,3.439a1.03,1.03,0,1,1,1.03-1.03,1.031,1.031,0,0,1-1.03,1.03Z" transform="translate(-463.005 -172.128)" fill="#0f5197"/>
      <path id="Caminho_423" data-name="Caminho 423" d="M260.807,389.46H244.687a.711.711,0,0,0,0,1.378h16.121a.711.711,0,0,0,0-1.378Z" transform="translate(-230.364 -357.837)" fill="#0f5197"/>
      <path id="Caminho_424" data-name="Caminho 424" d="M256.9,440.41H240.778a.71.71,0,1,0,0,1.378H256.9a.711.711,0,1,0,0-1.378Z" transform="translate(-226.455 -404.631)" fill="#0f5197"/>
      <path id="Caminho_425" data-name="Caminho 425" d="M257.276,491.84h-12.59a.711.711,0,0,0,0,1.378h12.59a.71.71,0,0,0,0-1.378Z" transform="translate(-230.364 -451.904)" fill="#0f5197"/>
      <path id="Caminho_426" data-name="Caminho 426" d="M417.768,187.34a2.416,2.416,0,1,0,1.7.708,2.407,2.407,0,0,0-1.7-.708Zm0,3.439a1.03,1.03,0,1,1,1.03-1.03,1.03,1.03,0,0,1-1.03,1.03Z" transform="translate(-387.672 -172.128)" fill="#0f5197"/>
    </g>
    <path id="Caminho_1378" data-name="Caminho 1378" d="M266.153,163.42H255.625a2.272,2.272,0,0,0-2.272,2.272V176.22a2.272,2.272,0,0,0,2.272,2.272h3.287l0,3.107,3.7-3.107h3.536a2.272,2.272,0,0,0,2.272-2.272V165.692a2.272,2.272,0,0,0-2.272-2.272Zm-5.969,4.014c0-.111.071-.172.213-.172h.973c.143,0,.214.061.214.172v5.043q0,.182-.214.182H260.4q-.213,0-.213-.182Zm.7,7.024a.692.692,0,1,1,.807-.687A.722.722,0,0,1,260.883,174.458Z" transform="translate(751.979 2697.824)" fill="#f80"/>
  </g>
</svg>
