<svg xmlns="http://www.w3.org/2000/svg" xmlns:xlink="http://www.w3.org/1999/xlink" width="53.318" height="49.494" viewBox="0 0 53.318 49.494">
  <defs>
    <linearGradient id="linear-gradient" x1="0.5" x2="0.5" y2="1" gradientUnits="objectBoundingBox">
      <stop offset="0" stop-color="#0f5197"/>
      <stop offset="1" stop-color="#08f"/>
    </linearGradient>
  </defs>
  <g id="Grupo_3032" data-name="Grupo 3032" transform="translate(-755.841 -4024.098)">
    <g id="Grupo_1725" data-name="Grupo 1725" transform="translate(0.482 -478.325)">
      <path id="Caminho_1431" data-name="Caminho 1431" d="M135.943,47.434H112.052a2.7,2.7,0,0,0-2.7,2.7v7.171h-4.1a5.408,5.408,0,0,0-5.408,5.408V77.664a5.408,5.408,0,0,0,5.408,5.408h4.624v6.576a2.7,2.7,0,0,0,2.7,2.7h22.848a2.7,2.7,0,0,0,2.7-2.7V83.072h4.624a5.408,5.408,0,0,0,5.408-5.408V62.716a5.408,5.408,0,0,0-5.408-5.408h-4.1V50.138a2.7,2.7,0,0,0-2.7-2.7Zm-24.437,2.7a.541.541,0,0,1,.541-.541h23.9a.541.541,0,0,1,.541.541v7.171H111.511Zm24.46,39.509a.541.541,0,0,1-.541.541H112.571a.541.541,0,0,1-.541-.541v-15.2h23.935ZM146,62.716V77.663a3.245,3.245,0,0,1-3.245,3.244h-4.624V73.37a1.082,1.082,0,0,0-1.081-1.081h-26.1a1.082,1.082,0,0,0-1.081,1.081v7.538h-4.618A3.245,3.245,0,0,1,102,77.663V62.716a3.245,3.245,0,0,1,3.245-3.244h37.5A3.245,3.245,0,0,1,146,62.716Z" transform="translate(655.518 4459.566)" fill="url(#linear-gradient)"/>
      <path id="Caminho_1432" data-name="Caminho 1432" d="M473.7,203.394a3.7,3.7,0,1,0,1.085-2.614,3.7,3.7,0,0,0-1.085,2.614Zm3.7-1.536a1.535,1.535,0,1,1-1.086.45A1.537,1.537,0,0,1,477.4,201.858Z" transform="translate(317.761 4322.008)" fill="url(#linear-gradient)"/>
      <path id="Caminho_1433" data-name="Caminho 1433" d="M277.391,369.6H262.432a1.081,1.081,0,0,0,0,2.163h14.958a1.081,1.081,0,1,0,0-2.163Z" transform="translate(509.604 4168.511)" fill="url(#linear-gradient)"/>
      <path id="Caminho_1434" data-name="Caminho 1434" d="M277.391,425.6H262.432a1.081,1.081,0,0,0,0,2.163h14.958a1.081,1.081,0,1,0,0-2.163Z" transform="translate(509.604 4117.918)" fill="url(#linear-gradient)"/>
    </g>
    <g id="Grupo_1724" data-name="Grupo 1724" transform="translate(607.779 -454)">
      <g id="Grupo_1723" data-name="Grupo 1723" transform="translate(-237.354 229.098)">
        <rect id="Retângulo_592" data-name="Retângulo 592" width="13.69" height="14" rx="2.5" transform="translate(423.54 4250)" fill="#f80"/>
        <path id="Caminho_1429" data-name="Caminho 1429" d="M267.531,163.42H255.869a2.517,2.517,0,0,0-2.516,2.516V177.6a2.517,2.517,0,0,0,2.516,2.516h3.641l0,3.442,4.1-3.442h3.916a2.517,2.517,0,0,0,2.516-2.516V165.936a2.516,2.516,0,0,0-2.516-2.516Zm-6.612,4.447c0-.123.079-.19.236-.19h1.077c.158,0,.237.067.237.19v5.586q0,.2-.237.2h-1.077q-.236,0-.236-.2Zm.775,7.78a.766.766,0,1,1,.893-.761A.8.8,0,0,1,261.694,175.647Z" transform="translate(168.686 4085.58)" fill="#f80"/>
      </g>
      <path id="Icon_material-attach-money" data-name="Icon material-attach-money" d="M12.567,8.95c-1.279-.332-1.69-.676-1.69-1.211,0-.614.569-1.042,1.521-1.042,1,0,1.375.479,1.408,1.183h1.245a2.246,2.246,0,0,0-1.808-2.146V4.5h-1.69V5.717A2.2,2.2,0,0,0,9.581,7.75c0,1.3,1.076,1.949,2.648,2.327,1.408.338,1.69.834,1.69,1.358,0,.389-.276,1.008-1.521,1.008-1.16,0-1.617-.518-1.679-1.183H9.48a2.36,2.36,0,0,0,2.073,2.158V14.64h1.69V13.429c1.1-.208,1.972-.845,1.972-2C15.215,9.829,13.846,9.283,12.567,8.95Z" transform="translate(180.684 4477.026)" fill="#f8f8fa"/>
    </g>
  </g>
</svg>
