<svg xmlns="http://www.w3.org/2000/svg" width="55" height="55" viewBox="0 0 55 55">
  <g id="Grupo_3028" data-name="Grupo 3028" transform="translate(-260 -2192.229)">
    <circle id="Elipse_49" data-name="Elipse 49" cx="27.5" cy="27.5" r="27.5" transform="translate(260 2192.229)" fill="#e6f2ff"/>
    <path id="Icon_material-attach-money" data-name="Icon material-attach-money" d="M17.7,16.35c-3.4-.885-4.5-1.8-4.5-3.225,0-1.635,1.515-2.775,4.05-2.775,2.67,0,3.66,1.275,3.75,3.15h3.315A5.979,5.979,0,0,0,19.5,7.785V4.5H15V7.74c-2.91.63-5.25,2.52-5.25,5.415,0,3.465,2.865,5.19,7.05,6.2,3.75.9,4.5,2.22,4.5,3.615,0,1.035-.735,2.685-4.05,2.685-3.09,0-4.305-1.38-4.47-3.15H9.48c.18,3.285,2.64,5.13,5.52,5.745V31.5h4.5V28.275c2.925-.555,5.25-2.25,5.25-5.325C24.75,18.69,21.1,17.235,17.7,16.35Z" transform="translate(270.385 2201.729)" fill="#0f5197"/>
  </g>
</svg>
