<svg xmlns="http://www.w3.org/2000/svg" xmlns:xlink="http://www.w3.org/1999/xlink" width="58.418" height="49.07" viewBox="0 0 58.418 49.07">
  <defs>
    <linearGradient id="linear-gradient" x1="0.5" x2="0.5" y2="1" gradientUnits="objectBoundingBox">
      <stop offset="0" stop-color="#0f5197"/>
      <stop offset="1" stop-color="#08f"/>
    </linearGradient>
  </defs>
  <g id="Grupo_3031" data-name="Grupo 3031" transform="translate(-400.291 -4029.099)">
    <path id="Caminho_1428" data-name="Caminho 1428" d="M175.41,95.2H130A4.011,4.011,0,0,0,126,99.2v27.377A4.011,4.011,0,0,0,130,130.585h17.361v6.009H140.02a1.335,1.335,0,1,0,0,2.671h25.374a1.335,1.335,0,0,0,0-2.671h-7.345v-6.009h17.361a4.011,4.011,0,0,0,4.007-4.007V99.2a4.011,4.011,0,0,0-4.007-4.007Zm-20.032,41.4h-5.342v-6.009h5.342Zm21.367-10.016a1.337,1.337,0,0,1-1.335,1.335H130a1.337,1.337,0,0,1-1.335-1.335V99.2A1.337,1.337,0,0,1,130,97.867H175.41a1.337,1.337,0,0,1,1.335,1.335Z" transform="translate(274.293 3938.903)" fill="url(#linear-gradient)"/>
    <g id="Grupo_1721" data-name="Grupo 1721" transform="translate(46.977 -219.901)">
      <rect id="Retângulo_592" data-name="Retângulo 592" width="13.69" height="14" rx="2.5" transform="translate(396.539 4250)" fill="#fff"/>
      <path id="Caminho_1429" data-name="Caminho 1429" d="M267.531,163.42H255.869a2.517,2.517,0,0,0-2.516,2.516V177.6a2.517,2.517,0,0,0,2.516,2.516h3.641l0,3.442,4.1-3.442h3.916a2.517,2.517,0,0,0,2.516-2.516V165.936a2.516,2.516,0,0,0-2.516-2.516Zm-6.612,4.447c0-.123.079-.19.236-.19h1.077c.158,0,.237.067.237.19v5.586q0,.2-.237.2h-1.077q-.236,0-.236-.2Zm.775,7.78a.766.766,0,1,1,.893-.761A.8.8,0,0,1,261.694,175.647Z" transform="translate(141.686 4085.58)" fill="#f80"/>
    </g>
  </g>
</svg>
