<svg xmlns="http://www.w3.org/2000/svg" width="51.902" height="54.304" viewBox="0 0 51.902 54.304">
  <g id="Grupo_3030" data-name="Grupo 3030" transform="translate(-968.502 -2961.285)">
    <g id="Grupo_821" data-name="Grupo 821" transform="translate(968.502 2971.285)">
      <path id="Caminho_430" data-name="Caminho 430" d="M132.914,130.67H116.67v7.384h16.244Zm-1.477,5.907H118.146v-4.43h13.291Z" transform="translate(-112.978 -120.33)" fill="#0f5197"/>
      <path id="Caminho_431" data-name="Caminho 431" d="M511.621,145.913a2.953,2.953,0,1,0-2.953-2.953A2.953,2.953,0,0,0,511.621,145.913Zm0-4.43a1.477,1.477,0,1,1-1.477,1.477A1.481,1.481,0,0,1,511.621,141.483Z" transform="translate(-473.965 -128.928)" fill="#0f5197"/>
      <path id="Caminho_432" data-name="Caminho 432" d="M109.92,7.358H81.884l29.609-5.922a.736.736,0,0,0,.576-.871.731.731,0,0,0-.871-.576L74.345,7.358A4.382,4.382,0,0,0,70,11.736v32.54h44.3V11.736a4.383,4.383,0,0,0-4.379-4.379ZM74.375,8.834h35.552a2.9,2.9,0,0,1,2.9,2.9v7.435H71.474V11.736A2.9,2.9,0,0,1,74.375,8.834ZM79.6,42.8V36.892h7.384v1.425a1.531,1.531,0,0,0,1.528,1.528h6.542a1.531,1.531,0,0,0,1.528-1.528V36.892H104.7V42.8Zm8.86-14.029H95.1V30.2a.05.05,0,0,1-.052.052H88.508a.05.05,0,0,1-.052-.052Zm.052,2.953h6.542A1.531,1.531,0,0,0,96.578,30.2V28.77h6.941a1.185,1.185,0,0,1,1.181,1.181v5.464h-25.1V29.952a1.185,1.185,0,0,1,1.181-1.181h6.2V30.2a1.531,1.531,0,0,0,1.528,1.528Zm-.052,5.169H95.1v1.425a.05.05,0,0,1-.052.052H88.508a.05.05,0,0,1-.052-.052ZM106.176,42.8V29.952a2.661,2.661,0,0,0-2.658-2.658H80.777a2.661,2.661,0,0,0-2.658,2.658V42.8H71.474V20.648h41.349V42.8Z" transform="translate(-69.996 0.028)" fill="#0f5197"/>
      <path id="Caminho_433" data-name="Caminho 433" d="M277.812,289.33H266.736a.738.738,0,0,0,0,1.477h11.075a.738.738,0,0,0,0-1.477Z" transform="translate(-250.492 -266.439)" fill="#0f5197"/>
      <path id="Caminho_434" data-name="Caminho 434" d="M350.736,150.813h.738a.738.738,0,1,0,0-1.477h-.738a.738.738,0,0,0,0,1.477Z" transform="translate(-327.847 -137.52)" fill="#0f5197"/>
      <path id="Caminho_435" data-name="Caminho 435" d="M350.736,188.143h.738a.738.738,0,1,0,0-1.477h-.738a.738.738,0,0,0,0,1.477Z" transform="translate(-327.847 -171.897)" fill="#0f5197"/>
      <path id="Caminho_436" data-name="Caminho 436" d="M397.406,150.813h.738a.738.738,0,1,0,0-1.477h-.738a.738.738,0,0,0,0,1.477Z" transform="translate(-370.825 -137.52)" fill="#0f5197"/>
      <path id="Caminho_437" data-name="Caminho 437" d="M397.406,188.143h.738a.738.738,0,1,0,0-1.477h-.738a.738.738,0,0,0,0,1.477Z" transform="translate(-370.825 -171.897)" fill="#0f5197"/>
    </g>
    <path id="Caminho_1419" data-name="Caminho 1419" d="M266.153,163.42H255.625a2.272,2.272,0,0,0-2.272,2.272V176.22a2.272,2.272,0,0,0,2.272,2.272h3.287l0,3.107,3.7-3.107h3.536a2.272,2.272,0,0,0,2.272-2.272V165.692a2.272,2.272,0,0,0-2.272-2.272Zm-5.969,4.014c0-.111.071-.172.213-.172h.973c.143,0,.214.061.214.172v5.043q0,.182-.214.182H260.4q-.213,0-.213-.182Zm.7,7.024a.692.692,0,1,1,.807-.687A.722.722,0,0,1,260.883,174.458Z" transform="translate(751.979 2797.865)" fill="#f80"/>
  </g>
</svg>
