<svg xmlns="http://www.w3.org/2000/svg" xmlns:xlink="http://www.w3.org/1999/xlink" width="65.932" height="49.304" viewBox="0 0 65.932 49.304">
  <defs>
    <linearGradient id="linear-gradient" x1="0.5" x2="0.5" y2="1" gradientUnits="objectBoundingBox">
      <stop offset="0" stop-color="#0f5197"/>
      <stop offset="1" stop-color="#08f"/>
    </linearGradient>
  </defs>
  <g id="Grupo_3034" data-name="Grupo 3034" transform="translate(-1102.034 -4024.099)">
    <g id="Grupo_3033" data-name="Grupo 3033" transform="translate(-5)">
      <path id="Caminho_1430" data-name="Caminho 1430" d="M56.668,87.351a13.514,13.514,0,0,1,9.26,12.779,13.36,13.36,0,0,1-13.334,13.15H13.33A13.28,13.28,0,0,1,11.849,86.8a12.708,12.708,0,0,1,7.964-10,12.992,12.992,0,0,1,12.223,1.111c3.334-6.112,10.186-7.964,16.3-5.741,6.3,2.408,10,8.519,8.334,15.186Zm-2.222,2.778a1.9,1.9,0,0,1-1.3-2.222c2.222-5.556-.37-10.742-5.927-12.779-5.371-2.037-10.742,0-12.964,5.556a1.616,1.616,0,0,1-2.593.741,10.088,10.088,0,0,0-10.557-1.852,9.826,9.826,0,0,0-6.3,8.7,1.66,1.66,0,0,1-1.667,1.667,10,10,0,0,0-10,10.186A10.276,10.276,0,0,0,13.33,110.314H52.593a10.276,10.276,0,0,0,10.186-10.186,10.139,10.139,0,0,0-8.334-10Z" transform="translate(1107.038 3960.123)" fill="url(#linear-gradient)"/>
      <g id="Grupo_1723" data-name="Grupo 1723" transform="translate(734.233 -224.901)">
        <rect id="Retângulo_592" data-name="Retângulo 592" width="13.69" height="14" rx="2.5" transform="translate(423.54 4250)" fill="#f80"/>
        <path id="Caminho_1429" data-name="Caminho 1429" d="M267.531,163.42H255.869a2.517,2.517,0,0,0-2.516,2.516V177.6a2.517,2.517,0,0,0,2.516,2.516h3.641l0,3.442,4.1-3.442h3.916a2.517,2.517,0,0,0,2.516-2.516V165.936a2.516,2.516,0,0,0-2.516-2.516Zm-6.612,4.447c0-.123.079-.19.236-.19h1.077c.158,0,.237.067.237.19v5.586q0,.2-.237.2h-1.077q-.236,0-.236-.2Zm.775,7.78a.766.766,0,1,1,.893-.761A.8.8,0,0,1,261.694,175.647Z" transform="translate(168.686 4085.58)" fill="#f80"/>
      </g>
    </g>
    <path id="Icon_awesome-lock" data-name="Icon awesome-lock" d="M7.146,4H6.718V2.716a2.716,2.716,0,1,0-5.431,0V4H.858A.858.858,0,0,0,0,4.86V8.29a.858.858,0,0,0,.858.858H7.146A.858.858,0,0,0,8,8.29V4.86A.858.858,0,0,0,7.146,4ZM5.288,4H2.716V2.716a1.286,1.286,0,0,1,2.573,0Z" transform="translate(1155.617 4027.903)" fill="#fff"/>
  </g>
</svg>
