<svg xmlns="http://www.w3.org/2000/svg" width="52.297" height="44.175" viewBox="0 0 52.297 44.175">
  <g id="Grupo_3029" data-name="Grupo 3029" transform="translate(-1315.867 -2861.244)">
    <g id="Grupo_902" data-name="Grupo 902" transform="translate(1315.867 2868.019)">
      <path id="Caminho_502" data-name="Caminho 502" d="M118.247,118.86h.645v1.172a.8.8,0,0,0,.8.8h3.575a.8.8,0,0,0,.8-.8V118.86h25.143v1.172a.8.8,0,0,0,.8.8h3.575a.8.8,0,0,0,.8-.8V118.86h.645a3.457,3.457,0,0,0,3.457-3.452v-9.764a.717.717,0,0,0-.048-.266l1.039-2.046h0a.82.82,0,0,0,0-.746,8.3,8.3,0,0,0-3.4-3.074l-27.454-13.9a25.58,25.58,0,0,0-6.035-2.131,2.131,2.131,0,0,0-2.381,1.129,2.163,2.163,0,0,0,.948,2.893l34.278,17.339H116.692a1.9,1.9,0,0,0-1.891,1.9v8.667a3.457,3.457,0,0,0,3.446,3.452Zm4.219.373H120.49v-.373h1.976Zm30.316,0h-1.976v-.373h1.976Zm-31.157-33.9a.533.533,0,0,1,.634-.293,23.684,23.684,0,0,1,5.63,2.014l27.439,13.887a7.124,7.124,0,0,1,2.5,2.083l-.533,1L121.871,86.074a.532.532,0,0,1-.245-.74ZM116.4,106.742a.3.3,0,0,1,.3-.3h40.186v8.965a1.854,1.854,0,0,1-1.854,1.854H118.274a1.854,1.854,0,0,1-1.875-1.854Z" transform="translate(-114.801 -83.431)" fill="#0f5197"/>
      <path id="Caminho_503" data-name="Caminho 503" d="M150.428,339.067a.916.916,0,1,0-.911-.884.917.917,0,0,0,.911.884Z" transform="translate(-146.213 -313.092)" fill="#0f5197"/>
      <path id="Caminho_504" data-name="Caminho 504" d="M182.231,339.067a.916.916,0,1,0-.911-.884.917.917,0,0,0,.911.884Z" transform="translate(-174.992 -313.092)" fill="#0f5197"/>
      <path id="Caminho_505" data-name="Caminho 505" d="M214.041,339.067a.916.916,0,1,0-.911-.884.917.917,0,0,0,.911.884Z" transform="translate(-203.777 -313.092)" fill="#0f5197"/>
      <path id="Caminho_507" data-name="Caminho 507" d="M489.571,392.7h4.08a.8.8,0,0,0,.8-.8v-2.4a.8.8,0,0,0-.8-.8h-4.08a.8.8,0,0,0-.8.8v2.4A.8.8,0,0,0,489.571,392.7Zm.8-2.4h2.482v.8h-2.482Z" transform="translate(-453.198 -359.662)" fill="#0f5197"/>
    </g>
    <path id="Caminho_1420" data-name="Caminho 1420" d="M266.153,163.42H255.625a2.272,2.272,0,0,0-2.272,2.272V176.22a2.272,2.272,0,0,0,2.272,2.272h3.287l0,3.107,3.7-3.107h3.536a2.272,2.272,0,0,0,2.272-2.272V165.692a2.272,2.272,0,0,0-2.272-2.272Zm-5.969,4.014c0-.111.071-.172.213-.172h.973c.143,0,.214.061.214.172v5.043q0,.182-.214.182H260.4q-.213,0-.213-.182Zm.7,7.024a.692.692,0,1,1,.807-.687A.722.722,0,0,1,260.883,174.458Z" transform="translate(1099.74 2697.824)" fill="#f80"/>
  </g>
</svg>
