<svg xmlns="http://www.w3.org/2000/svg" width="23.125" height="24.401" viewBox="0 0 23.125 24.401">
  <path id="Caminho_1437" data-name="Caminho 1437" d="M88.875,21.567s2.879-4.458,5.387-4.829a3.6,3.6,0,0,1,3.343.65c2.229,1.207,3.622,1.114,5.851-.093a3.8,3.8,0,0,1,3.158-.557c2.507.372,5.387,4.829,5.387,4.829-5.387,9.38-17.738,9.38-23.125,0ZM100.391,4.2a5.906,5.906,0,0,1,5.944,5.851,5.985,5.985,0,0,1-5.944,5.944,5.906,5.906,0,0,1-5.851-5.944A5.827,5.827,0,0,1,100.391,4.2Z" transform="translate(-88.875 -4.2)" fill="#08f" fill-rule="evenodd"/>
</svg>
