<svg xmlns="http://www.w3.org/2000/svg" width="47" height="47" viewBox="0 0 47 47">
  <g id="Grupo_3039" data-name="Grupo 3039" transform="translate(278.169 3754.503)">
    <g id="Caminho_843" data-name="Caminho 843" transform="translate(-278.169 -3754.503)" fill="none">
      <path d="M23.5,0A23.5,23.5,0,1,1,0,23.5,23.5,23.5,0,0,1,23.5,0Z" stroke="none"/>
      <path d="M 23.5 1 C 20.46208000183105 1 17.51556015014648 1.594760894775391 14.74229049682617 2.767749786376953 C 12.06312942504883 3.90093994140625 9.656780242919922 5.523410797119141 7.590099334716797 7.590099334716797 C 5.523410797119141 9.656780242919922 3.90093994140625 12.06312942504883 2.767749786376953 14.74229049682617 C 1.594760894775391 17.51556015014648 1 20.46208000183105 1 23.5 C 1 26.53791999816895 1.594760894775391 29.48443984985352 2.767749786376953 32.25770950317383 C 3.90093994140625 34.93687057495117 5.523410797119141 37.34321975708008 7.590099334716797 39.4099006652832 C 9.656780242919922 41.47658920288086 12.06312942504883 43.09906005859375 14.74229049682617 44.23225021362305 C 17.51556015014648 45.40523910522461 20.46208000183105 46 23.5 46 C 26.53791999816895 46 29.48443984985352 45.40523910522461 32.25770950317383 44.23225021362305 C 34.93687057495117 43.09906005859375 37.34321975708008 41.47658920288086 39.4099006652832 39.4099006652832 C 41.47658920288086 37.34321975708008 43.09906005859375 34.93687057495117 44.23225021362305 32.25770950317383 C 45.40523910522461 29.48443984985352 46 26.53791999816895 46 23.5 C 46 20.46208000183105 45.40523910522461 17.51556015014648 44.23225021362305 14.74229049682617 C 43.09906005859375 12.06312942504883 41.47658920288086 9.656780242919922 39.4099006652832 7.590099334716797 C 37.34321975708008 5.523410797119141 34.93687057495117 3.90093994140625 32.25770950317383 2.767749786376953 C 29.48443984985352 1.594760894775391 26.53791999816895 1 23.5 1 M 23.5 0 C 36.47869110107422 0 47 10.52130889892578 47 23.5 C 47 36.47869110107422 36.47869110107422 47 23.5 47 C 10.52130889892578 47 0 36.47869110107422 0 23.5 C 0 10.52130889892578 10.52130889892578 0 23.5 0 Z" stroke="none" fill="#08f"/>
    </g>
    <path id="União_8" data-name="União 8" d="M3.825,25.485A12.591,12.591,0,0,1,11.82,3.88V1.542H10.535V0h4.111V1.542H13.361V3.88h0A12.591,12.591,0,1,1,3.825,25.485ZM6.958,10.839a7.965,7.965,0,0,0,5.633,13.6v-.026A7.953,7.953,0,1,0,6.958,10.839ZM8.049,20.988a6.425,6.425,0,1,1,4.542,1.881A6.423,6.423,0,0,1,8.049,20.988Zm-.181-4.239,3.037,3.037,6.419-5.607L16.3,13.018l-5.324,4.661-2.014-2.02Z" transform="translate(-267.261 -3745.521)" fill="#0f5197"/>
  </g>
</svg>
