<svg xmlns="http://www.w3.org/2000/svg" width="47" height="47" viewBox="0 0 47 47">
  <g id="Grupo_3029" data-name="Grupo 3029" transform="translate(-809 -2728.627)">
    <g id="Grupo_1167" data-name="Grupo 1167" transform="translate(11.891 135.381)">
      <g id="Grupo_1129" data-name="Grupo 1129" transform="translate(797.109 2593.247)">
        <g id="Caminho_843" data-name="Caminho 843" transform="translate(0)" fill="#fff">
          <path d="M 23.5 46.5 C 20.39480018615723 46.5 17.38274955749512 45.89194869995117 14.54751968383789 44.6927490234375 C 11.80875015258789 43.53435134887695 9.348990440368652 41.87590026855469 7.236539840698242 39.76345825195312 C 5.124100208282471 37.65102005004883 3.465650081634521 35.19124984741211 2.307250022888184 32.45249176025391 C 1.108049988746643 29.61725044250488 0.5 26.60519981384277 0.5 23.5 C 0.5 20.39480018615723 1.108049988746643 17.38274955749512 2.307250022888184 14.54751968383789 C 3.465650081634521 11.80875015258789 5.124100208282471 9.348990440368652 7.236539840698242 7.236539840698242 C 9.348990440368652 5.124100208282471 11.80875015258789 3.465650081634521 14.54751968383789 2.307250022888184 C 17.38274955749512 1.108049988746643 20.39480018615723 0.5 23.5 0.5 C 26.60519981384277 0.5 29.61725044250488 1.108049988746643 32.45249176025391 2.307250022888184 C 35.19124984741211 3.465650081634521 37.65102005004883 5.124100208282471 39.76345825195312 7.236539840698242 C 41.87590026855469 9.348990440368652 43.53435134887695 11.80875015258789 44.6927490234375 14.54751968383789 C 45.89194869995117 17.38274955749512 46.5 20.39480018615723 46.5 23.5 C 46.5 26.60519981384277 45.89194869995117 29.61725997924805 44.6927490234375 32.45249176025391 C 43.53435134887695 35.19124984741211 41.87590026855469 37.65102005004883 39.76345825195312 39.76345825195312 C 37.65102005004883 41.87590026855469 35.19124984741211 43.53435134887695 32.45249176025391 44.6927490234375 C 29.61725997924805 45.89194869995117 26.60519981384277 46.5 23.5 46.5 Z" stroke="none"/>
          <path d="M 23.5 1 C 20.46208000183105 1 17.51556015014648 1.594760894775391 14.74229049682617 2.767749786376953 C 12.06312942504883 3.90093994140625 9.656780242919922 5.523410797119141 7.590099334716797 7.590099334716797 C 5.523410797119141 9.656780242919922 3.90093994140625 12.06312942504883 2.767749786376953 14.74229049682617 C 1.594760894775391 17.51556015014648 1 20.46208000183105 1 23.5 C 1 26.53791999816895 1.594760894775391 29.48443984985352 2.767749786376953 32.25770950317383 C 3.90093994140625 34.93687057495117 5.523410797119141 37.34321975708008 7.590099334716797 39.4099006652832 C 9.656780242919922 41.47658920288086 12.06312942504883 43.09906005859375 14.74229049682617 44.23225021362305 C 17.51556015014648 45.40523910522461 20.46208000183105 46 23.5 46 C 26.53791999816895 46 29.48443984985352 45.40523910522461 32.25770950317383 44.23225021362305 C 34.93687057495117 43.09906005859375 37.34321975708008 41.47658920288086 39.4099006652832 39.4099006652832 C 41.47658920288086 37.34321975708008 43.09906005859375 34.93687057495117 44.23225021362305 32.25770950317383 C 45.40523910522461 29.48443984985352 46 26.53791999816895 46 23.5 C 46 20.46208000183105 45.40523910522461 17.51556015014648 44.23225021362305 14.74229049682617 C 43.09906005859375 12.06312942504883 41.47658920288086 9.656780242919922 39.4099006652832 7.590099334716797 C 37.34321975708008 5.523410797119141 34.93687057495117 3.90093994140625 32.25770950317383 2.767749786376953 C 29.48443984985352 1.594760894775391 26.53791999816895 1 23.5 1 M 23.5 0 C 36.47869110107422 0 47 10.52130889892578 47 23.5 C 47 36.47869110107422 36.47869110107422 47 23.5 47 C 10.52130889892578 47 0 36.47869110107422 0 23.5 C 0 10.52130889892578 10.52130889892578 0 23.5 0 Z" stroke="none" fill="#08f"/>
        </g>
      </g>
    </g>
    <g id="Grupo_1238" data-name="Grupo 1238" transform="translate(128.546 -1099.134)">
      <path id="Caminho_954" data-name="Caminho 954" d="M139.3,22.559a1.363,1.363,0,0,0-.547,1.059v9.8h-5.191a2.13,2.13,0,0,0-1.324.438,1.363,1.363,0,0,0-.547,1.059,1.323,1.323,0,0,0,.547,1.045,2.022,2.022,0,0,0,1.324.438h14.125a1.952,1.952,0,0,0,1.306-.438,1.259,1.259,0,0,0,.547-1.045,1.3,1.3,0,0,0-.547-1.059,2.056,2.056,0,0,0-1.306-.438h-5.209v-9.8a1.3,1.3,0,0,0-.547-1.059,2.056,2.056,0,0,0-1.306-.438,2.13,2.13,0,0,0-1.324.438m12.43,23.787a.317.317,0,0,0,0-.254L148.2,37.617A.487.487,0,0,0,148,37.4a.608.608,0,0,0-.318-.085H133.559a.519.519,0,0,0-.3.085.38.38,0,0,0-.194.212l-3.531,8.475a.246.246,0,0,0,0,.254.452.452,0,0,0,.194.212.517.517,0,0,0,.3.085h2.313l2.384-6.738a.374.374,0,0,1,.212-.212.511.511,0,0,1,.335-.028.429.429,0,0,1,.265.169.275.275,0,0,1,.035.268l-2.313,6.54h2.348l.088-.48-.018.014.971-6.215a.415.415,0,0,1,.177-.24.521.521,0,0,1,.318-.071.566.566,0,0,1,.3.141.3.3,0,0,1,.088.254l-.971,6.215v.028l-.071.353h2.454V40a.288.288,0,0,1,.141-.24.429.429,0,0,1,.3-.113.5.5,0,0,1,.318.113.3.3,0,0,1,.124.24v6.639h1.66l-.335-6.625a.338.338,0,0,1,.124-.254.429.429,0,0,1,.3-.113.542.542,0,0,1,.318.1.288.288,0,0,1,.141.24l.335,6.653h2.472l-1.13-6.582a.322.322,0,0,1,.088-.268.438.438,0,0,1,.3-.127.458.458,0,0,1,.318.057.365.365,0,0,1,.177.24l1.148,6.681h2.542l-2.436-6.54a.276.276,0,0,1,.035-.268.429.429,0,0,1,.265-.169.511.511,0,0,1,.335.028.374.374,0,0,1,.212.212l2.507,6.738h2.013a.605.605,0,0,0,.318-.085.619.619,0,0,0,.194-.212Z" transform="translate(563.328 3816.879)" fill="#0f5197"/>
    </g>
  </g>
</svg>
