<svg xmlns="http://www.w3.org/2000/svg" width="47" height="47" viewBox="0 0 47 47">
  <g id="Grupo_3027" data-name="Grupo 3027" transform="translate(-1135 -2746.498)">
    <g id="Grupo_1129" data-name="Grupo 1129" transform="translate(1135 2746.498)">
      <g id="Caminho_843" data-name="Caminho 843" transform="translate(0)" fill="#fff">
        <path d="M 23.5 46.5 C 20.39480018615723 46.5 17.38274955749512 45.89194869995117 14.54751968383789 44.6927490234375 C 11.80875015258789 43.53435134887695 9.348990440368652 41.87590026855469 7.236539840698242 39.76345825195312 C 5.124100208282471 37.65102005004883 3.465650081634521 35.19124984741211 2.307250022888184 32.45249176025391 C 1.108049988746643 29.61725044250488 0.5 26.60519981384277 0.5 23.5 C 0.5 20.39480018615723 1.108049988746643 17.38274955749512 2.307250022888184 14.54751968383789 C 3.465650081634521 11.80875015258789 5.124100208282471 9.348990440368652 7.236539840698242 7.236539840698242 C 9.348990440368652 5.124100208282471 11.80875015258789 3.465650081634521 14.54751968383789 2.307250022888184 C 17.38274955749512 1.108049988746643 20.39480018615723 0.5 23.5 0.5 C 26.60519981384277 0.5 29.61725044250488 1.108049988746643 32.45249176025391 2.307250022888184 C 35.19124984741211 3.465650081634521 37.65102005004883 5.124100208282471 39.76345825195312 7.236539840698242 C 41.87590026855469 9.348990440368652 43.53435134887695 11.80875015258789 44.6927490234375 14.54751968383789 C 45.89194869995117 17.38274955749512 46.5 20.39480018615723 46.5 23.5 C 46.5 26.60519981384277 45.89194869995117 29.61725997924805 44.6927490234375 32.45249176025391 C 43.53435134887695 35.19124984741211 41.87590026855469 37.65102005004883 39.76345825195312 39.76345825195312 C 37.65102005004883 41.87590026855469 35.19124984741211 43.53435134887695 32.45249176025391 44.6927490234375 C 29.61725997924805 45.89194869995117 26.60519981384277 46.5 23.5 46.5 Z" stroke="none"/>
        <path d="M 23.5 1 C 20.46208000183105 1 17.51556015014648 1.594760894775391 14.74229049682617 2.767749786376953 C 12.06312942504883 3.90093994140625 9.656780242919922 5.523410797119141 7.590099334716797 7.590099334716797 C 5.523410797119141 9.656780242919922 3.90093994140625 12.06312942504883 2.767749786376953 14.74229049682617 C 1.594760894775391 17.51556015014648 1 20.46208000183105 1 23.5 C 1 26.53791999816895 1.594760894775391 29.48443984985352 2.767749786376953 32.25770950317383 C 3.90093994140625 34.93687057495117 5.523410797119141 37.34321975708008 7.590099334716797 39.4099006652832 C 9.656780242919922 41.47658920288086 12.06312942504883 43.09906005859375 14.74229049682617 44.23225021362305 C 17.51556015014648 45.40523910522461 20.46208000183105 46 23.5 46 C 26.53791999816895 46 29.48443984985352 45.40523910522461 32.25770950317383 44.23225021362305 C 34.93687057495117 43.09906005859375 37.34321975708008 41.47658920288086 39.4099006652832 39.4099006652832 C 41.47658920288086 37.34321975708008 43.09906005859375 34.93687057495117 44.23225021362305 32.25770950317383 C 45.40523910522461 29.48443984985352 46 26.53791999816895 46 23.5 C 46 20.46208000183105 45.40523910522461 17.51556015014648 44.23225021362305 14.74229049682617 C 43.09906005859375 12.06312942504883 41.47658920288086 9.656780242919922 39.4099006652832 7.590099334716797 C 37.34321975708008 5.523410797119141 34.93687057495117 3.90093994140625 32.25770950317383 2.767749786376953 C 29.48443984985352 1.594760894775391 26.53791999816895 1 23.5 1 M 23.5 0 C 36.47869110107422 0 47 10.52130889892578 47 23.5 C 47 36.47869110107422 36.47869110107422 47 23.5 47 C 10.52130889892578 47 0 36.47869110107422 0 23.5 C 0 10.52130889892578 10.52130889892578 0 23.5 0 Z" stroke="none" fill="#08f"/>
      </g>
    </g>
    <path id="Caminho_955" data-name="Caminho 955" d="M112.083,68.762a3.959,3.959,0,0,1,2.743,6.8l6.236,9.58a4.343,4.343,0,0,1,1.39-.263,3.945,3.945,0,1,1-3.832,4.771H105.583a3.95,3.95,0,1,1-3.87-4.771,4.155,4.155,0,0,1,1.39.263l6.274-9.58a3.934,3.934,0,0,1,2.705-6.8Zm1.352,7.626a3.938,3.938,0,0,1-1.352.263,4.316,4.316,0,0,1-1.352-.263l-6.274,9.618a3.763,3.763,0,0,1,1.127,2.029H118.62a3.967,3.967,0,0,1,1.089-2.029Z" transform="translate(1046.416 2688.039)" fill="#0f5197" fill-rule="evenodd"/>
  </g>
</svg>
