<svg xmlns="http://www.w3.org/2000/svg" width="47.271" height="41.419" viewBox="0 0 47.271 41.419">
  <g id="Grupo_1298" data-name="Grupo 1298" transform="translate(-13622.268 -3460)">
    <path id="Caminho_1049" data-name="Caminho 1049" d="M141.777,105.478l6.346-6.7a.485.485,0,0,1,.837.334v6.7a.485.485,0,0,1-.485.485h-6.346a.485.485,0,0,1-.352-.819Zm5.873,11.168A.65.65,0,1,0,147,116,.65.65,0,0,0,147.649,116.647Zm7.935,6.636a.65.65,0,1,0,.633.65A.65.65,0,0,0,155.584,123.282Zm15.155,11.386v1.071a2.984,2.984,0,0,1-2.975,2.976H143.414a2.978,2.978,0,0,1-2.976-2.976V108.286h8.52a1.989,1.989,0,0,0,1.984-1.984V97.3h16.822a3.011,3.011,0,0,1,2.975,3.253,1,1,0,0,1-.992.992h-1.884a4.449,4.449,0,0,0-4.443,4.443v23.239a4.453,4.453,0,0,0,4.453,4.453h1.875a1,1,0,0,1,.992.992Zm-23.09-16.038a2.633,2.633,0,1,0-2.261-1.324A2.633,2.633,0,0,0,147.649,118.63Zm-.913,7.617L157.9,115.08a.993.993,0,0,0-1.4-1.408L145.338,124.84a.992.992,0,0,0,1.4,1.408Zm8.847-4.949h0a2.633,2.633,0,1,0,2.252,1.326,2.633,2.633,0,0,0-2.252-1.326Zm32.125-7.359v6.03a1.019,1.019,0,0,1-1.022,1.021h-8.1a1.011,1.011,0,0,1-1.011-1.021v-6.03a1.009,1.009,0,0,1,1.011-1.012h8.1A1.018,1.018,0,0,1,187.709,113.939Zm-3.521,2h-3.1a1.012,1.012,0,0,0,0,2.023h3.1a1.012,1.012,0,0,0,0-2.023Zm1.052-12.418c-2.08,0-15.648,0-17.367,0h0a2.468,2.468,0,0,0-2.469,2.46v3.908a1.018,1.018,0,0,0,1.021,1.012h20.263a1.018,1.018,0,0,0,1.021-1.012v-3.908a2.468,2.468,0,0,0-2.469-2.46Zm2.469,20.5v5.2h0a2.47,2.47,0,0,1-2.469,2.47h-6.656a1.009,1.009,0,0,1-1.011-1.012v-6.655a1.009,1.009,0,0,1,1.011-1.012h8.1a1.018,1.018,0,0,1,1.021,1.012Zm-4.057,4.781h0a1.017,1.017,0,1,0-1.017,1.017,1.017,1.017,0,0,0,1.017-1.017Zm0-2.9h0a1.017,1.017,0,1,0-1.017,1.017,1.017,1.017,0,0,0,1.017-1.017Zm-8.113-11.971v6.03a1.012,1.012,0,0,1-1.012,1.021h-8.1a1.02,1.02,0,0,1-1.021-1.022v-6.03a1.018,1.018,0,0,1,1.021-1.012h8.1a1.01,1.01,0,0,1,1.012,1.012Zm-3.362,2h-.685v-.685a1.017,1.017,0,0,0-2.033,0v.685h-.684a1.012,1.012,0,1,0,0,2.023h.685v.694h0a1.017,1.017,0,1,0,2.033,0v-.694h.685a1.012,1.012,0,0,0,0-2.023Zm3.362,8.083v6.655a1.01,1.01,0,0,1-1.012,1.012h-6.656a2.47,2.47,0,0,1-2.469-2.47v-5.2a1.018,1.018,0,0,1,1.021-1.012h8.1a1.01,1.01,0,0,1,1.012,1.012Zm-3.085,3.858-.546-.536.546-.535a1.017,1.017,0,0,0-1.438-1.438l-.546.546-.536-.546h0a1.017,1.017,0,0,0-1.438,1.438l.545.536-.545.536h0a1.021,1.021,0,1,0,1.438,1.448l.536-.555c.138.135.412.415.546.555h0a1.021,1.021,0,0,0,1.438-1.448Z" transform="translate(13481.829 3362.704)" fill="#0f5197"/>
  </g>
</svg>
