<svg xmlns="http://www.w3.org/2000/svg" width="42.82" height="42.82" viewBox="0 0 42.82 42.82">
  <path id="Caminho_1066" data-name="Caminho 1066" d="M211.61,110.168H201.574v-5.353a4.014,4.014,0,0,0-4.014-4.014H186.855a4.014,4.014,0,0,0-4.014,4.014v5.353H172.8a2.007,2.007,0,0,0-2.007,2.007v9.366h42.819v-9.367a2.007,2.007,0,0,0-2.007-2.007Zm-15.388,0h-8.029v-4.014h8.029Zm1.338,16.057h16.057v15.388a2.006,2.006,0,0,1-2.007,2.007H172.8a2.006,2.006,0,0,1-2.007-2.007V126.225h16.057v3.345a1.338,1.338,0,0,0,1.338,1.338h8.029a1.338,1.338,0,0,0,1.338-1.338Z" transform="translate(-170.797 -100.801)" fill="#0f5197"/>
</svg>
