<svg xmlns="http://www.w3.org/2000/svg" width="29.759" height="42.076" viewBox="0 0 29.759 42.076">
  <path id="Caminho_1003" data-name="Caminho 1003" d="M202.482,50.4a7.175,7.175,0,0,0-7.183,7.183,6.942,6.942,0,0,0,1.876,4.746l.031.032c1.639,1.446,3.188,3.263,3.223,5.484.036,2.008-1.335,3.614-2.71,4.987a6.848,6.848,0,0,0-1.876,4.249H209.12a6.85,6.85,0,0,0-1.876-4.249c-1.376-1.373-2.746-2.98-2.71-4.987h0v-.016c.041-2.216,1.587-4.007,3.223-5.452l-.015-.016a6.962,6.962,0,0,0,1.924-4.778,7.176,7.176,0,0,0-7.183-7.183ZM190.937,78.11a3.312,3.312,0,0,0-3.335,3.335v2.566a3.312,3.312,0,0,0,3.335,3.335h23.089a3.313,3.313,0,0,0,3.335-3.335V81.445a3.313,3.313,0,0,0-3.335-3.335h-4.25a.51.51,0,0,1-.208,0H195.412a.511.511,0,0,1-.208,0Zm-1.283,10.262v4.105H215.31V88.372Z" transform="translate(-187.602 -50.402)" fill="#0f5197"/>
</svg>
