<svg xmlns="http://www.w3.org/2000/svg" width="48.534" height="40.447" viewBox="0 0 48.534 40.447">
  <g id="Grupo_1357" data-name="Grupo 1357" transform="translate(-13187.839 -699)">
    <path id="Caminho_1128" data-name="Caminho 1128" d="M181.388,60.526c-1.29.4-2.52.787-3.851,1.145.009-.465-.014-1.127,0-1.441-3.439-.4-7.331-.8-10.883-1.163a12.159,12.159,0,0,1-1.582-.139c-.327-.087-.6-.43-.976-.559-.962-.325-3.191-.143-3.209.791-.019.9,1.7,1.128,2.791.93.435-.078.775-.371,1.116-.418a8.488,8.488,0,0,1,1.535.139c3.38.323,7.059.77,10.417,1.069v1.071c-4.058,1.153-8.148,2.424-12.278,3.674a9.549,9.549,0,0,1-1.767.511,9.805,9.805,0,0,1-2.279-.7c-5.178-1.64-10.392-3.342-15.534-4.975V58.555c5.862-1.594,11.891-3.08,17.673-4.651a7.052,7.052,0,0,1,2.6.511c5.268,1.411,10.964,2.944,16.231,4.325Z" transform="translate(13048.969 645.131)" fill="#0f5197" fill-rule="evenodd"/>
    <path id="Caminho_1129" data-name="Caminho 1129" d="M487.556,148.63h.093v3.3a1.473,1.473,0,0,1,.6,2.278c1.282.391.635,2.713.791,4.231a5.454,5.454,0,0,1-3.675,0c.154-1.505-.484-3.8.791-4.185a1.434,1.434,0,0,1,.7-2.279v-3.116c.2-.106.487-.132.7-.231Z" transform="translate(12738.854 558.815)" fill="#0f5197" fill-rule="evenodd"/>
    <path id="Caminho_1130" data-name="Caminho 1130" d="M241.257,168.393c-3.623,1-7.132,2.108-10.7,3.162q-5.48-1.8-11.022-3.534c-.054.008-.051.074-.046.139,0,3.116,0,6.089,0,9.113,3.964,3.549,14.3,4.318,19.72,1.442.6-.318,1.985-1.046,2.047-1.535v-8.787Z" transform="translate(12981.017 541.153)" fill="#0f5197" fill-rule="evenodd"/>
    <path id="Caminho_1131" data-name="Caminho 1131" d="M101.618,254.849c-7.6-3.565-15.281-7.042-22.929-10.557-1.632-1.6-1.742-5.967-.372-7.954,3.4-1.579,6.8-3.154,10.232-4.7a19.469,19.469,0,0,0,0,2.836c.123.589,1.851,1.411,2.418,1.722a21.531,21.531,0,0,0,9.953,2.372c5.588,0,9.756-1.417,12.371-4.047v-.651a7.62,7.62,0,0,0,5.674-.419v-3.348c2.248,1.209,4.45,2.464,6.7,3.673-8.235,4.06-16.538,8.05-24.788,12.092-7.1-2.959-14.144-5.979-21.207-8.976-1.311,1.281-1.3,4.882-.186,6.372,6.777,3.081,21.607,10,21.859,10a6.741,6.741,0,0,0,1.535-.744c7.314-3.862,14.817-7.705,22.138-11.534.179-.054.058-.407.094-.605a6.313,6.313,0,0,1,.79.559c.037.362-.071.58-.046.93Z" transform="translate(13110.469 484.598)" fill="#0f5197" fill-rule="evenodd"/>
    <path id="Caminho_1132" data-name="Caminho 1132" d="M127.175,332.4l-20.909-9.254-.053-.388,20.909,9.254Z" transform="translate(13084.197 400.209)" fill="#0f5197" fill-rule="evenodd"/>
    <path id="Caminho_1133" data-name="Caminho 1133" d="M129.074,354.49l-20.909-9.254-.053-.388,20.909,9.253Z" transform="translate(13082.466 380.084)" fill="#0f5197" fill-rule="evenodd"/>
    <path id="Caminho_1134" data-name="Caminho 1134" d="M130.344,375.156,109.436,365.9l-.053-.388,20.909,9.253Z" transform="translate(13081.31 361.259)" fill="#0f5197" fill-rule="evenodd"/>
  </g>
</svg>
