<svg xmlns="http://www.w3.org/2000/svg" width="38.848" height="42.075" viewBox="0 0 38.848 42.075">
  <g id="Grupo_1358" data-name="Grupo 1358" transform="translate(-915.89 -3998)">
    <path id="Caminho_1174" data-name="Caminho 1174" d="M131.957,157.25H115.771s-11.331,9.71-11.331,21.041c0,6.472,4.873,9.71,8.093,9.71h22.662c3.234,0,8.093-3.238,8.093-9.71,0-11.331-11.331-21.041-11.331-21.041Zm-6.476,22.494v2.591h-3.234v-2.583c-2.383-.443-3.88-1.914-3.987-4.049h2.8c.137,1.121,1.267,1.843,2.9,1.843,1.506,0,2.574-.731,2.574-1.772,0-.886-.691-1.391-2.392-1.772l-1.8-.385c-2.525-.527-3.765-1.843-3.765-3.956a4.2,4.2,0,0,1,3.65-4.137v-2.609h3.234v2.613a4.309,4.309,0,0,1,3.717,3.987h-2.706a2.316,2.316,0,0,0-2.556-1.825c-1.4,0-2.41.673-2.41,1.728,0,.855.66,1.329,2.286,1.692l1.67.354c2.786.585,3.987,1.772,3.987,3.938,0,2.317-1.488,3.867-3.969,4.341Z" transform="translate(811.45 3852.074)" fill="#0f5197"/>
    <path id="Caminho_1175" data-name="Caminho 1175" d="M245.077,15.7H240.6a4.873,4.873,0,0,0-7.238,0h-4.474a1.621,1.621,0,0,0-1.5,2.215l1.5,4.257h16.186l1.5-4.257a1.621,1.621,0,0,0-1.5-2.215Z" transform="translate(698.33 3983.914)" fill="#0f5197"/>
  </g>
</svg>
