<svg xmlns="http://www.w3.org/2000/svg" width="51.851" height="40.321" viewBox="0 0 51.851 40.321">
  <path id="Icon_awesome-home" data-name="Icon awesome-home" d="M25.237,12.714,8.642,26.382V41.135a1.44,1.44,0,0,0,1.44,1.44l10.087-.026a1.44,1.44,0,0,0,1.433-1.44V32.493a1.44,1.44,0,0,1,1.44-1.44H28.8a1.44,1.44,0,0,1,1.44,1.44V41.1a1.44,1.44,0,0,0,1.44,1.445l10.083.028a1.44,1.44,0,0,0,1.44-1.44V26.372L26.614,12.714A1.1,1.1,0,0,0,25.237,12.714ZM51.452,22l-7.525-6.2V3.334a1.08,1.08,0,0,0-1.08-1.08H37.806a1.08,1.08,0,0,0-1.08,1.08V9.87l-8.059-6.63a4.321,4.321,0,0,0-5.491,0L.391,22a1.08,1.08,0,0,0-.144,1.521l2.3,2.79a1.08,1.08,0,0,0,1.522.147L25.237,9.023a1.1,1.1,0,0,1,1.377,0L47.788,26.462a1.08,1.08,0,0,0,1.521-.144l2.3-2.79A1.08,1.08,0,0,0,51.452,22Z" transform="translate(0.001 -2.253)" fill="#0f5197"/>
</svg>
