<svg xmlns="http://www.w3.org/2000/svg" width="43.801" height="42.832" viewBox="0 0 43.801 42.832">
  <g id="Grupo_1398" data-name="Grupo 1398" transform="translate(-14088.212 -2764.646)">
    <path id="Caminho_1176" data-name="Caminho 1176" d="M393.749,232.68s-5.382-8.074-5.382-23.26h-9.707a56.683,56.683,0,0,1-1.36,12.616,45.147,45.147,0,0,0,4.669,11.92h3.3v2.377h10.887V232.68Z" transform="translate(13735.859 2568.767)" fill="#0f5197"/>
    <path id="Caminho_1177" data-name="Caminho 1177" d="M182.838,194.737a42.658,42.658,0,0,1-4.517-10.995,71.833,71.833,0,0,1-2.553-19.123h-11.89c-.089,19.42-7,30.012-7.07,30.118l-.111.167h-2.954v4h32.162v-4H182.95Z" transform="translate(13934.469 2608.569)" fill="#0f5197"/>
    <path id="Caminho_1178" data-name="Caminho 1178" d="M267.053,94.795a1.127,1.127,0,0,0,.207-.021,7.715,7.715,0,0,1,2.867.654,1.149,1.149,0,0,1,1.783-.634,1.154,1.154,0,0,0,.854-1.934,1.158,1.158,0,0,0,.289-.524,1.138,1.138,0,0,0,.546.143,1.141,1.141,0,0,1,1.509-.727,1.153,1.153,0,0,0,1.15-1.082c.034,0,.066.01.1.01a1.608,1.608,0,1,0-2.615-1.853,1.58,1.58,0,0,1-1.835.524,1.157,1.157,0,0,0-1.157,1.158c0,.022,0,.042.006.064a1.156,1.156,0,0,0-1.79.968,1.134,1.134,0,0,0,.05.318,1.139,1.139,0,0,0-.3-.044,1.142,1.142,0,0,1-1.666.665,1.158,1.158,0,0,0,0,2.316Z" transform="translate(13834.83 2676.579)" fill="#0f5197"/>
    <path id="Caminho_1179" data-name="Caminho 1179" d="M405.389,147.323a.985.985,0,0,0,.18-.018,6.686,6.686,0,0,1,2.478.566.992.992,0,0,1,1.54-.547,13.452,13.452,0,0,1,.988-2.124.985.985,0,0,0,1.421-.574.99.99,0,0,0,1.349-.867c.03,0,.058.01.088.01a1.389,1.389,0,1,0-2.259-1.6.982.982,0,0,0-.268-.041.991.991,0,0,1-1.317.493,1,1,0,0,0-1,1c0,.019.006.038.006.056a1,1,0,0,0-1.548.836.974.974,0,0,0,.043.275.955.955,0,0,0-.259-.039.988.988,0,0,1-1.44.574,1,1,0,0,0,0,2Z" transform="translate(13711.791 2629.099)" fill="#0f5197"/>
  </g>
</svg>
