<svg xmlns="http://www.w3.org/2000/svg" width="47.01" height="42.901" viewBox="0 0 47.01 42.901">
  <g id="Grupo_1432" data-name="Grupo 1432" transform="translate(-12964.232 -2171.798)">
    <path id="Caminho_1180" data-name="Caminho 1180" d="M170.757,220.5l-4.876,5.369a1.275,1.275,0,0,1-1.26.438,1.42,1.42,0,0,1-1.041-.877l-3.068-8.712-2.575,5.534a1.336,1.336,0,0,1-1.26.767h-2.849l-4.109,6.794a1.352,1.352,0,0,1-1.151.657h-.11a1.32,1.32,0,0,1-1.151-.822l-5.041-11.616-2.027,4.493a1.336,1.336,0,0,1-1.26.767h-5.7a15.33,15.33,0,0,0,1.863,2.356L153.5,244.005a1.459,1.459,0,0,0,1.972,0l18.355-18.355a14.27,14.27,0,0,0,3.288-5.15Z" transform="translate(12833.253 1970.31)" fill="#0f5197"/>
    <path id="Caminho_1181" data-name="Caminho 1181" d="M116.886,80.106,119.9,73.7a1.336,1.336,0,0,1,1.26-.767,1.384,1.384,0,0,1,1.26.822l5.15,11.944,3.178-5.205a1.489,1.489,0,0,1,1.151-.657h2.74l3.616-7.78a1.329,1.329,0,0,1,1.315-.767,1.283,1.283,0,0,1,1.205.931l3.4,9.7L147.9,77.8a1.4,1.4,0,0,1,1.041-.438h7.671a14.214,14.214,0,0,0-23.341-12.876,14.218,14.218,0,0,0-23.5,10.739,15.4,15.4,0,0,0,.877,4.986h6.246Z" transform="translate(12854.469 2110.759)" fill="#0f5197"/>
  </g>
</svg>
