<svg xmlns="http://www.w3.org/2000/svg" width="45.92" height="43.219" viewBox="0 0 45.92 43.219">
  <path id="noun-members-3265974" d="M79.829,16.527a6.231,6.231,0,1,0,6.229,6.229A6.246,6.246,0,0,0,79.829,16.527Zm26.4,0a6.231,6.231,0,1,0,6.221,6.229A6.253,6.253,0,0,0,106.23,16.527Zm-13.2,5.657a6.225,6.225,0,1,0,6.229,6.232,6.255,6.255,0,0,0-6.229-6.232Zm-13.2,8.446A9.769,9.769,0,0,0,70.07,40.4V52.657a1.436,1.436,0,0,0,1.43,1.43h8.889V46.057a12.679,12.679,0,0,1,7.3-11.432,9.738,9.738,0,0,0-7.864-3.995Zm26.4,0a9.738,9.738,0,0,0-7.864,3.995,12.681,12.681,0,0,1,7.3,11.432v8.029h8.89a1.436,1.436,0,0,0,1.43-1.43V40.4a9.769,9.769,0,0,0-9.759-9.767Zm-13.2,5.657a9.762,9.762,0,0,0-9.77,9.77V58.313A1.436,1.436,0,0,0,84.7,59.746h16.658a1.436,1.436,0,0,0,1.441-1.432V46.057a9.782,9.782,0,0,0-9.77-9.77Z" transform="translate(-70.07 -16.527)" fill="#0f5197"/>
</svg>
