<svg xmlns="http://www.w3.org/2000/svg" width="47" height="47" viewBox="0 0 47 47">
  <g id="Grupo_3028" data-name="Grupo 3028" transform="translate(-1401 -2644.498)">
    <g id="Grupo_1172" data-name="Grupo 1172" transform="translate(603.891 51.251)">
      <g id="Grupo_1129" data-name="Grupo 1129" transform="translate(797.109 2593.247)">
        <g id="Caminho_843" data-name="Caminho 843" transform="translate(0)" fill="#fff">
          <path d="M 23.5 46.5 C 20.39480018615723 46.5 17.38274955749512 45.89194869995117 14.54751968383789 44.6927490234375 C 11.80875015258789 43.53435134887695 9.348990440368652 41.87590026855469 7.236539840698242 39.76345825195312 C 5.124100208282471 37.65102005004883 3.465650081634521 35.19124984741211 2.307250022888184 32.45249176025391 C 1.108049988746643 29.61725044250488 0.5 26.60519981384277 0.5 23.5 C 0.5 20.39480018615723 1.108049988746643 17.38274955749512 2.307250022888184 14.54751968383789 C 3.465650081634521 11.80875015258789 5.124100208282471 9.348990440368652 7.236539840698242 7.236539840698242 C 9.348990440368652 5.124100208282471 11.80875015258789 3.465650081634521 14.54751968383789 2.307250022888184 C 17.38274955749512 1.108049988746643 20.39480018615723 0.5 23.5 0.5 C 26.60519981384277 0.5 29.61725044250488 1.108049988746643 32.45249176025391 2.307250022888184 C 35.19124984741211 3.465650081634521 37.65102005004883 5.124100208282471 39.76345825195312 7.236539840698242 C 41.87590026855469 9.348990440368652 43.53435134887695 11.80875015258789 44.6927490234375 14.54751968383789 C 45.89194869995117 17.38274955749512 46.5 20.39480018615723 46.5 23.5 C 46.5 26.60519981384277 45.89194869995117 29.61725997924805 44.6927490234375 32.45249176025391 C 43.53435134887695 35.19124984741211 41.87590026855469 37.65102005004883 39.76345825195312 39.76345825195312 C 37.65102005004883 41.87590026855469 35.19124984741211 43.53435134887695 32.45249176025391 44.6927490234375 C 29.61725997924805 45.89194869995117 26.60519981384277 46.5 23.5 46.5 Z" stroke="none"/>
          <path d="M 23.5 1 C 20.46208000183105 1 17.51556015014648 1.594760894775391 14.74229049682617 2.767749786376953 C 12.06312942504883 3.90093994140625 9.656780242919922 5.523410797119141 7.590099334716797 7.590099334716797 C 5.523410797119141 9.656780242919922 3.90093994140625 12.06312942504883 2.767749786376953 14.74229049682617 C 1.594760894775391 17.51556015014648 1 20.46208000183105 1 23.5 C 1 26.53791999816895 1.594760894775391 29.48443984985352 2.767749786376953 32.25770950317383 C 3.90093994140625 34.93687057495117 5.523410797119141 37.34321975708008 7.590099334716797 39.4099006652832 C 9.656780242919922 41.47658920288086 12.06312942504883 43.09906005859375 14.74229049682617 44.23225021362305 C 17.51556015014648 45.40523910522461 20.46208000183105 46 23.5 46 C 26.53791999816895 46 29.48443984985352 45.40523910522461 32.25770950317383 44.23225021362305 C 34.93687057495117 43.09906005859375 37.34321975708008 41.47658920288086 39.4099006652832 39.4099006652832 C 41.47658920288086 37.34321975708008 43.09906005859375 34.93687057495117 44.23225021362305 32.25770950317383 C 45.40523910522461 29.48443984985352 46 26.53791999816895 46 23.5 C 46 20.46208000183105 45.40523910522461 17.51556015014648 44.23225021362305 14.74229049682617 C 43.09906005859375 12.06312942504883 41.47658920288086 9.656780242919922 39.4099006652832 7.590099334716797 C 37.34321975708008 5.523410797119141 34.93687057495117 3.90093994140625 32.25770950317383 2.767749786376953 C 29.48443984985352 1.594760894775391 26.53791999816895 1 23.5 1 M 23.5 0 C 36.47869110107422 0 47 10.52130889892578 47 23.5 C 47 36.47869110107422 36.47869110107422 47 23.5 47 C 10.52130889892578 47 0 36.47869110107422 0 23.5 C 0 10.52130889892578 10.52130889892578 0 23.5 0 Z" stroke="none" fill="#08f"/>
        </g>
      </g>
    </g>
    <g id="Grupo_1196" data-name="Grupo 1196" transform="translate(-13189.721 157.542)">
      <path id="Caminho_883" data-name="Caminho 883" d="M250.25,143.5h10.168v3.709H250.25Z" transform="translate(14358.717 2359.768)" fill="#0f5197"/>
      <path id="Caminho_884" data-name="Caminho 884" d="M315.017,1.433c0-.019,0-.037-.009-.055,0-.055-.111-1.377-1.05-1.377-.848,0-1,1.378-1,1.391s0,.028,0,.042l-.926,5.1h3.916Z" transform="translate(14300.188 2495.712)" fill="#0f5197"/>
      <path id="Caminho_885" data-name="Caminho 885" d="M307.086,314.65a49.489,49.489,0,0,0-2.184,6.477,1.562,1.562,0,0,0,.382,1.276,2.375,2.375,0,0,0,3.6,0,1.556,1.556,0,0,0,.382-1.276A48.664,48.664,0,0,0,307.086,314.65Z" transform="translate(14306.962 2197.63)" fill="#0f5197"/>
      <path id="Caminho_886" data-name="Caminho 886" d="M250.725,233.184h-8.712l-.019.019a3.642,3.642,0,0,0-1.364,2.751v14.439h11.523V235.952a3.592,3.592,0,0,0-1.428-2.769Zm-1.93,12.7a3.393,3.393,0,0,1-5.151,0,2.57,2.57,0,0,1-.608-2.1,63.08,63.08,0,0,1,2.714-7.878.512.512,0,0,1,.47-.318.505.505,0,0,1,.47.318,62.851,62.851,0,0,1,2.714,7.878,2.539,2.539,0,0,1-.608,2.1Z" transform="translate(14367.829 2274.807)" fill="#0f5197"/>
    </g>
  </g>
</svg>
