<svg xmlns="http://www.w3.org/2000/svg" width="47" height="47" viewBox="0 0 47 47">
  <g id="Grupo_3029" data-name="Grupo 3029" transform="translate(-809 -2816.998)">
    <g id="Grupo_1168" data-name="Grupo 1168" transform="translate(11.891 223.751)">
      <g id="Grupo_1129" data-name="Grupo 1129" transform="translate(797.109 2593.247)">
        <g id="Caminho_843" data-name="Caminho 843" transform="translate(0)" fill="#fff">
          <path d="M 23.5 46.5 C 20.39480018615723 46.5 17.38274955749512 45.89194869995117 14.54751968383789 44.6927490234375 C 11.80875015258789 43.53435134887695 9.348990440368652 41.87590026855469 7.236539840698242 39.76345825195312 C 5.124100208282471 37.65102005004883 3.465650081634521 35.19124984741211 2.307250022888184 32.45249176025391 C 1.108049988746643 29.61725044250488 0.5 26.60519981384277 0.5 23.5 C 0.5 20.39480018615723 1.108049988746643 17.38274955749512 2.307250022888184 14.54751968383789 C 3.465650081634521 11.80875015258789 5.124100208282471 9.348990440368652 7.236539840698242 7.236539840698242 C 9.348990440368652 5.124100208282471 11.80875015258789 3.465650081634521 14.54751968383789 2.307250022888184 C 17.38274955749512 1.108049988746643 20.39480018615723 0.5 23.5 0.5 C 26.60519981384277 0.5 29.61725044250488 1.108049988746643 32.45249176025391 2.307250022888184 C 35.19124984741211 3.465650081634521 37.65102005004883 5.124100208282471 39.76345825195312 7.236539840698242 C 41.87590026855469 9.348990440368652 43.53435134887695 11.80875015258789 44.6927490234375 14.54751968383789 C 45.89194869995117 17.38274955749512 46.5 20.39480018615723 46.5 23.5 C 46.5 26.60519981384277 45.89194869995117 29.61725997924805 44.6927490234375 32.45249176025391 C 43.53435134887695 35.19124984741211 41.87590026855469 37.65102005004883 39.76345825195312 39.76345825195312 C 37.65102005004883 41.87590026855469 35.19124984741211 43.53435134887695 32.45249176025391 44.6927490234375 C 29.61725997924805 45.89194869995117 26.60519981384277 46.5 23.5 46.5 Z" stroke="none"/>
          <path d="M 23.5 1 C 20.46208000183105 1 17.51556015014648 1.594760894775391 14.74229049682617 2.767749786376953 C 12.06312942504883 3.90093994140625 9.656780242919922 5.523410797119141 7.590099334716797 7.590099334716797 C 5.523410797119141 9.656780242919922 3.90093994140625 12.06312942504883 2.767749786376953 14.74229049682617 C 1.594760894775391 17.51556015014648 1 20.46208000183105 1 23.5 C 1 26.53791999816895 1.594760894775391 29.48443984985352 2.767749786376953 32.25770950317383 C 3.90093994140625 34.93687057495117 5.523410797119141 37.34321975708008 7.590099334716797 39.4099006652832 C 9.656780242919922 41.47658920288086 12.06312942504883 43.09906005859375 14.74229049682617 44.23225021362305 C 17.51556015014648 45.40523910522461 20.46208000183105 46 23.5 46 C 26.53791999816895 46 29.48443984985352 45.40523910522461 32.25770950317383 44.23225021362305 C 34.93687057495117 43.09906005859375 37.34321975708008 41.47658920288086 39.4099006652832 39.4099006652832 C 41.47658920288086 37.34321975708008 43.09906005859375 34.93687057495117 44.23225021362305 32.25770950317383 C 45.40523910522461 29.48443984985352 46 26.53791999816895 46 23.5 C 46 20.46208000183105 45.40523910522461 17.51556015014648 44.23225021362305 14.74229049682617 C 43.09906005859375 12.06312942504883 41.47658920288086 9.656780242919922 39.4099006652832 7.590099334716797 C 37.34321975708008 5.523410797119141 34.93687057495117 3.90093994140625 32.25770950317383 2.767749786376953 C 29.48443984985352 1.594760894775391 26.53791999816895 1 23.5 1 M 23.5 0 C 36.47869110107422 0 47 10.52130889892578 47 23.5 C 47 36.47869110107422 36.47869110107422 47 23.5 47 C 10.52130889892578 47 0 36.47869110107422 0 23.5 C 0 10.52130889892578 10.52130889892578 0 23.5 0 Z" stroke="none" fill="#08f"/>
        </g>
      </g>
    </g>
    <g id="Grupo_1197" data-name="Grupo 1197" transform="translate(-11994.924 1369.788)">
      <path id="Caminho_908" data-name="Caminho 908" d="M103.768,14.631a11.942,11.942,0,0,1,6.025-5.4,3.809,3.809,0,0,0-.532-.317,4.2,4.2,0,0,0-1.846-.426,4.159,4.159,0,0,0-3.9,5.587,3.4,3.4,0,0,0,.257.559Z" transform="translate(12713.188 1450.145)" fill="#0f5197"/>
      <path id="Caminho_909" data-name="Caminho 909" d="M455.815,14.63a3.793,3.793,0,0,0,.257-.562,4.162,4.162,0,0,0-5.745-5.161,4.565,4.565,0,0,0-.54.317,11.925,11.925,0,0,1,6.028,5.406Z" transform="translate(12382.078 1450.149)" fill="#0f5197"/>
      <path id="Caminho_910" data-name="Caminho 910" d="M158.935,473.679l-.487.887a1.7,1.7,0,0,0,.664,2.31,1.658,1.658,0,0,0,.819.211,1.707,1.707,0,0,0,1.491-.876l.257-.464.151-.272a11.574,11.574,0,0,1-2.865-1.853Z" transform="translate(12660.656 1005.702)" fill="#0f5197"/>
      <path id="Caminho_911" data-name="Caminho 911" d="M463.868,473.593l-.03-.057a11.609,11.609,0,0,1-2.858,1.853l.151.276.257.464a1.707,1.707,0,0,0,1.491.876,1.658,1.658,0,0,0,.819-.211,1.7,1.7,0,0,0,.664-2.31Z" transform="translate(12371.381 1005.784)" fill="#0f5197"/>
      <path id="Caminho_912" data-name="Caminho 912" d="M116.5,28.34a10.868,10.868,0,1,0,10.868,10.872A10.871,10.871,0,0,0,116.5,28.34Zm3.986,11.374H116.5a.5.5,0,0,1-.5-.5V32.364a.5.5,0,1,1,1,0v6.342h3.484a.5.5,0,0,1,0,1.008Z" transform="translate(12710.922 1431.173)" fill="#0f5197"/>
    </g>
  </g>
</svg>
