<svg xmlns="http://www.w3.org/2000/svg" width="20.218" height="26.602" viewBox="0 0 20.218 26.602">
  <g id="Icon_ionic-ios-document" data-name="Icon ionic-ios-document" transform="translate(-7.313 -3.938)">
    <path id="Caminho_837" data-name="Caminho 837" d="M21.865,10.522h6.052a.329.329,0,0,0,.333-.333h0a1.968,1.968,0,0,0-.712-1.523l-5.074-4.23a2.136,2.136,0,0,0-1.37-.492h0a.491.491,0,0,0-.492.492V9.258A1.263,1.263,0,0,0,21.865,10.522Z" transform="translate(-0.719 0)" fill="#0f5197"/>
    <path id="Caminho_838" data-name="Caminho 838" d="M18.153,9.258V3.937H9.441A2.134,2.134,0,0,0,7.313,6.066V28.412A2.134,2.134,0,0,0,9.441,30.54H25.4a2.134,2.134,0,0,0,2.128-2.128V12.251H21.146A3,3,0,0,1,18.153,9.258Z" transform="translate(0 0)" fill="#0f5197"/>
  </g>
</svg>
