<svg xmlns="http://www.w3.org/2000/svg" width="35" height="25" viewBox="0 0 35 25">
  <g id="Grupo_947" data-name="Grupo 947" transform="translate(-294 -1477)">
    <g id="Grupo_944" data-name="Grupo 944" transform="translate(294 1477)">
      <g id="Caminho_595" data-name="Caminho 595" transform="translate(2)" fill="#fff">
        <path d="M 6.650000095367432 4.650000095367432 L 0.3499999940395355 4.650000095367432 L 0.3499999940395355 2 C 0.3499999940395355 1.090190052986145 1.090190052986145 0.3499999940395355 2 0.3499999940395355 L 5 0.3499999940395355 C 5.909810066223145 0.3499999940395355 6.650000095367432 1.090190052986145 6.650000095367432 2 L 6.650000095367432 4.650000095367432 Z" stroke="none"/>
        <path d="M 2 0.6999998092651367 C 1.283180236816406 0.6999998092651367 0.6999998092651367 1.283179998397827 0.6999998092651367 2 L 0.6999998092651367 4.300000190734863 L 6.300000190734863 4.300000190734863 L 6.300000190734863 2 C 6.300000190734863 1.283179998397827 5.716819763183594 0.6999998092651367 5 0.6999998092651367 L 2 0.6999998092651367 M 2 0 L 5 0 C 6.104569911956787 0 7 0.8954300880432129 7 2 L 7 5 L 0 5 L 0 2 C 0 0.8954300880432129 0.8954300880432129 0 2 0 Z" stroke="none" fill="#f80"/>
      </g>
      <g id="Grupo_943" data-name="Grupo 943" transform="translate(0 3.396)">
        <g id="Retângulo_361" data-name="Retângulo 361" transform="translate(0 0.604)" fill="#fff" stroke="#f80" stroke-width="0.7">
          <rect width="11" height="21" stroke="none"/>
          <rect x="0.35" y="0.35" width="10.3" height="20.3" fill="none"/>
        </g>
        <g id="Retângulo_362" data-name="Retângulo 362" transform="translate(3 -0.396)" fill="#fff" stroke="#f80" stroke-width="0.7">
          <rect width="5" height="2" rx="0.5" stroke="none"/>
          <rect x="0.35" y="0.35" width="4.3" height="1.3" rx="0.15" fill="none"/>
        </g>
      </g>
      <g id="Retângulo_364" data-name="Retângulo 364" transform="translate(3 12)" fill="#f80" stroke="#f80" stroke-width="0.7">
        <rect width="5" height="5" stroke="none"/>
        <rect x="0.35" y="0.35" width="4.3" height="4.3" fill="none"/>
      </g>
    </g>
    <g id="Grupo_945" data-name="Grupo 945" transform="translate(306 1477)">
      <g id="Caminho_595-2" data-name="Caminho 595" transform="translate(2)" fill="#fff">
        <path d="M 6.650000095367432 4.650000095367432 L 0.3499999940395355 4.650000095367432 L 0.3499999940395355 2 C 0.3499999940395355 1.090190052986145 1.090190052986145 0.3499999940395355 2 0.3499999940395355 L 5 0.3499999940395355 C 5.909810066223145 0.3499999940395355 6.650000095367432 1.090190052986145 6.650000095367432 2 L 6.650000095367432 4.650000095367432 Z" stroke="none"/>
        <path d="M 2 0.6999998092651367 C 1.283180236816406 0.6999998092651367 0.6999998092651367 1.283179998397827 0.6999998092651367 2 L 0.6999998092651367 4.300000190734863 L 6.300000190734863 4.300000190734863 L 6.300000190734863 2 C 6.300000190734863 1.283179998397827 5.716819763183594 0.6999998092651367 5 0.6999998092651367 L 2 0.6999998092651367 M 2 0 L 5 0 C 6.104569911956787 0 7 0.8954300880432129 7 2 L 7 5 L 0 5 L 0 2 C 0 0.8954300880432129 0.8954300880432129 0 2 0 Z" stroke="none" fill="#f80"/>
      </g>
      <g id="Grupo_943-2" data-name="Grupo 943" transform="translate(0 3.396)">
        <g id="Retângulo_361-2" data-name="Retângulo 361" transform="translate(0 0.604)" fill="#fff" stroke="#f80" stroke-width="0.7">
          <rect width="11" height="21" stroke="none"/>
          <rect x="0.35" y="0.35" width="10.3" height="20.3" fill="none"/>
        </g>
        <g id="Retângulo_362-2" data-name="Retângulo 362" transform="translate(3 -0.396)" fill="#fff" stroke="#f80" stroke-width="0.7">
          <rect width="5" height="2" rx="0.5" stroke="none"/>
          <rect x="0.35" y="0.35" width="4.3" height="1.3" rx="0.15" fill="none"/>
        </g>
      </g>
      <g id="Retângulo_364-2" data-name="Retângulo 364" transform="translate(3 12)" fill="#f80" stroke="#f80" stroke-width="0.7">
        <rect width="5" height="5" stroke="none"/>
        <rect x="0.35" y="0.35" width="4.3" height="4.3" fill="none"/>
      </g>
    </g>
    <g id="Grupo_946" data-name="Grupo 946" transform="translate(318 1477)">
      <g id="Caminho_595-3" data-name="Caminho 595" transform="translate(2)" fill="#fff">
        <path d="M 6.650000095367432 4.650000095367432 L 0.3499999940395355 4.650000095367432 L 0.3499999940395355 2 C 0.3499999940395355 1.090190052986145 1.090190052986145 0.3499999940395355 2 0.3499999940395355 L 5 0.3499999940395355 C 5.909810066223145 0.3499999940395355 6.650000095367432 1.090190052986145 6.650000095367432 2 L 6.650000095367432 4.650000095367432 Z" stroke="none"/>
        <path d="M 2 0.6999998092651367 C 1.283180236816406 0.6999998092651367 0.6999998092651367 1.283179998397827 0.6999998092651367 2 L 0.6999998092651367 4.300000190734863 L 6.300000190734863 4.300000190734863 L 6.300000190734863 2 C 6.300000190734863 1.283179998397827 5.716819763183594 0.6999998092651367 5 0.6999998092651367 L 2 0.6999998092651367 M 2 0 L 5 0 C 6.104569911956787 0 7 0.8954300880432129 7 2 L 7 5 L 0 5 L 0 2 C 0 0.8954300880432129 0.8954300880432129 0 2 0 Z" stroke="none" fill="#f80"/>
      </g>
      <g id="Grupo_943-3" data-name="Grupo 943" transform="translate(0 3.396)">
        <g id="Retângulo_361-3" data-name="Retângulo 361" transform="translate(0 0.604)" fill="#fff" stroke="#f80" stroke-width="0.7">
          <rect width="11" height="21" stroke="none"/>
          <rect x="0.35" y="0.35" width="10.3" height="20.3" fill="none"/>
        </g>
        <g id="Retângulo_362-3" data-name="Retângulo 362" transform="translate(3 -0.396)" fill="#fff" stroke="#f80" stroke-width="0.7">
          <rect width="5" height="2" rx="0.5" stroke="none"/>
          <rect x="0.35" y="0.35" width="4.3" height="1.3" rx="0.15" fill="none"/>
        </g>
      </g>
      <g id="Retângulo_364-3" data-name="Retângulo 364" transform="translate(3 12)" fill="#f80" stroke="#f80" stroke-width="0.7">
        <rect width="5" height="5" stroke="none"/>
        <rect x="0.35" y="0.35" width="4.3" height="4.3" fill="none"/>
      </g>
    </g>
  </g>
</svg>
