<svg xmlns="http://www.w3.org/2000/svg" width="71" height="71" viewBox="0 0 71 71">
  <g id="Grupo_3031" data-name="Grupo 3031" transform="translate(-1400 -628)">
    <path id="Caminho_2242" data-name="Caminho 2242" d="M35.5,0A35.5,35.5,0,1,1,0,35.5,35.5,35.5,0,0,1,35.5,0Z" transform="translate(1400 628)" fill="#f80" opacity="0.15"/>
    <g id="Grupo_1021" data-name="Grupo 1021" transform="translate(-11385.371 1011.404)">
      <path id="Caminho_602" data-name="Caminho 602" d="M226.04,351.95h15.77v.831H226.04Z" transform="translate(12586.937 -695.277)" fill="#f80"/>
      <path id="Caminho_603" data-name="Caminho 603" d="M226.04,382.5h15.77v.831H226.04Z" transform="translate(12586.937 -723.883)" fill="#f80"/>
      <path id="Caminho_604" data-name="Caminho 604" d="M226.04,413.04h15.77v.831H226.04Z" transform="translate(12586.937 -752.48)" fill="#f80"/>
      <path id="Caminho_605" data-name="Caminho 605" d="M226.04,443.5h15.77v.831H226.04Z" transform="translate(12586.937 -781.002)" fill="#f80"/>
      <path id="Caminho_606" data-name="Caminho 606" d="M370.02,474.05h6.613v.831H370.02Z" transform="translate(12452.118 -809.608)" fill="#f80"/>
      <path id="Caminho_607" data-name="Caminho 607" d="M370.02,504.59h6.613v.831H370.02Z" transform="translate(12452.118 -838.205)" fill="#f80"/>
      <g id="Grupo_1020" data-name="Grupo 1020" transform="translate(12804.397 -365.181)">
        <path id="Caminho_600" data-name="Caminho 600" d="M119.537,17.657a9.472,9.472,0,0,0-17.422-4.837,5.684,5.684,0,0,0-1.08-.108,5.762,5.762,0,0,0-5.728,5.107,6.3,6.3,0,0,0,2.2,12.2h.286V42.5a.541.541,0,0,0,.54.54h18.707a.541.541,0,0,0,.54-.54V30.02h.286a6.295,6.295,0,0,0,1.674-12.363Zm-3.05,24.305H98.865v-23.4H110.9v5.048a.541.541,0,0,0,.54.54h5.053V41.962Zm-4.513-22.643,3.752,3.747h-3.752Zm5.879,9.621h-.286V23.606a.557.557,0,0,0-.157-.383l-5.593-5.588a.534.534,0,0,0-.383-.157H98.326a.541.541,0,0,0-.54.54V28.94H97.5a5.216,5.216,0,0,1-1.528-10.2.546.546,0,0,0,.383-.491,4.678,4.678,0,0,1,5.885-4.292.545.545,0,0,0,.6-.248,8.385,8.385,0,0,1,15.613,4.286l-.005.086a.534.534,0,0,0,.432.534,5.216,5.216,0,0,1-1.031,10.328Z" transform="translate(-91.21 -8.49)" fill="#f80"/>
        <path id="Caminho_601" data-name="Caminho 601" d="M226.04,321.49h15.77v.831H226.04Z" transform="translate(-217.461 -301.574)" fill="#f80"/>
        <path id="Caminho_608" data-name="Caminho 608" d="M226.325,189.621h5.21a.541.541,0,0,0,.54-.54v-6.63a.541.541,0,0,0-.54-.54h-5.21a.541.541,0,0,0-.54.54v6.63A.541.541,0,0,0,226.325,189.621Zm.54-6.629H231v5.55h-4.13Z" transform="translate(-217.223 -170.877)" fill="#f80"/>
      </g>
    </g>
  </g>
</svg>
