<svg xmlns="http://www.w3.org/2000/svg" width="37" height="37" viewBox="0 0 37 37">
  <g id="Grupo_3028" data-name="Grupo 3028" transform="translate(-260 -511)">
    <path id="Icon_metro-file-pdf" data-name="Icon metro-file-pdf" d="M16.647,5.847a2.231,2.231,0,0,1,.46.729,2.213,2.213,0,0,1,.192.844V18.466a.917.917,0,0,1-.92.92H3.491a.917.917,0,0,1-.92-.92V3.124a.917.917,0,0,1,.92-.92h8.591a2.214,2.214,0,0,1,.844.192,2.231,2.231,0,0,1,.729.46Zm-4.257-2.34V7.113h3.605a1.048,1.048,0,0,0-.211-.393l-3-3a1.047,1.047,0,0,0-.393-.211Zm3.682,14.651V8.34H12.083a.917.917,0,0,1-.92-.92V3.431H3.8V18.159H16.071Zm-4.929-5.686a7.3,7.3,0,0,0,.805.537,9.515,9.515,0,0,1,1.122-.067q1.41,0,1.7.47a.463.463,0,0,1,.019.5.028.028,0,0,1-.01.019l-.019.019v.01q-.058.364-.681.364a3.955,3.955,0,0,1-1.1-.192,6.992,6.992,0,0,1-1.247-.508,17.265,17.265,0,0,0-3.759.8Q6.5,16.931,5.649,16.931a.558.558,0,0,1-.268-.067l-.23-.115q-.01-.01-.058-.048a.4.4,0,0,1-.058-.345,2.082,2.082,0,0,1,.537-.877,4.634,4.634,0,0,1,1.266-.925.14.14,0,0,1,.221.058.055.055,0,0,1,.019.038q.5-.815,1.026-1.889a14.635,14.635,0,0,0,1-2.512,7.751,7.751,0,0,1-.292-1.529A3.728,3.728,0,0,1,8.87,7.5q.105-.384.4-.384h.211a.4.4,0,0,1,.336.144.766.766,0,0,1,.086.652.208.208,0,0,1-.038.077.25.25,0,0,1,.01.077V8.35a12.556,12.556,0,0,1-.134,1.841,4.851,4.851,0,0,0,1.4,2.282ZM5.62,16.414A4.234,4.234,0,0,0,6.934,14.9a5.466,5.466,0,0,0-.839.805A3.187,3.187,0,0,0,5.62,16.414ZM9.436,7.592a2.851,2.851,0,0,0-.019,1.266q.01-.067.067-.422,0-.029.067-.412a.216.216,0,0,1,.038-.077.028.028,0,0,1-.01-.019.019.019,0,0,0,0-.014.019.019,0,0,1,0-.014.552.552,0,0,0-.125-.345.028.028,0,0,1-.01.019v.019ZM8.247,13.93a14.064,14.064,0,0,1,2.723-.777,1.446,1.446,0,0,1-.125-.091,1.717,1.717,0,0,1-.153-.129,5.079,5.079,0,0,1-1.218-1.688,12.813,12.813,0,0,1-.8,1.889q-.288.537-.431.8Zm6.194-.153a2.3,2.3,0,0,0-1.342-.23,3.627,3.627,0,0,0,1.189.268.93.93,0,0,0,.173-.01q0-.01-.019-.029Z" transform="translate(268.565 518.705)" fill="#fff"/>
    <g id="Elipse_28" data-name="Elipse 28" transform="translate(260 511)" fill="none" stroke="#fff" stroke-width="1" opacity="0.69">
      <circle cx="18.5" cy="18.5" r="18.5" stroke="none"/>
      <circle cx="18.5" cy="18.5" r="18" fill="none"/>
    </g>
  </g>
</svg>
