<svg xmlns="http://www.w3.org/2000/svg" width="16.97" height="16.97" viewBox="0 0 16.97 16.97">
  <path id="Icon_metro-copyright" data-name="Icon metro-copyright" d="M17.476,14.859v1.2a1.4,1.4,0,0,1-.4.983,2.679,2.679,0,0,1-1.039.668,7.594,7.594,0,0,1-1.3.359,7.252,7.252,0,0,1-1.3.122A5.107,5.107,0,0,1,9.648,16.66a5.218,5.218,0,0,1-1.519-3.823,5.134,5.134,0,0,1,5.248-5.248,7.8,7.8,0,0,1,.834.05,7.129,7.129,0,0,1,1.028.2,5.27,5.27,0,0,1,1.022.376,2.2,2.2,0,0,1,.762.624,1.42,1.42,0,0,1,.309.895v1.2a.156.156,0,0,1-.177.177h-1.3a.156.156,0,0,1-.177-.177v-.773q0-.475-.724-.746a4.3,4.3,0,0,0-1.519-.271,3.357,3.357,0,0,0-2.525,1.011,3.616,3.616,0,0,0-.978,2.624,3.892,3.892,0,0,0,1.011,2.757,3.366,3.366,0,0,0,2.58,1.088,4.681,4.681,0,0,0,1.525-.265q.773-.265.773-.729v-.773a.172.172,0,0,1,.05-.127.159.159,0,0,1,.116-.05H17.3a.178.178,0,0,1,.122.05.163.163,0,0,1,.055.127ZM13.255,5.821a6.873,6.873,0,0,0-2.746.563,6.973,6.973,0,0,0-3.762,3.762,6.97,6.97,0,0,0,0,5.491A6.973,6.973,0,0,0,10.51,19.4,6.971,6.971,0,0,0,16,19.4a6.973,6.973,0,0,0,3.762-3.762,6.971,6.971,0,0,0,0-5.491A6.973,6.973,0,0,0,16,6.385a6.873,6.873,0,0,0-2.746-.563Zm8.485,7.071A8.3,8.3,0,0,1,20.6,17.151a8.447,8.447,0,0,1-3.088,3.088,8.539,8.539,0,0,1-8.518,0,8.447,8.447,0,0,1-3.088-3.088,8.539,8.539,0,0,1,0-8.518A8.447,8.447,0,0,1,9,5.545a8.539,8.539,0,0,1,8.518,0A8.447,8.447,0,0,1,20.6,8.633,8.3,8.3,0,0,1,21.74,12.892Z" transform="translate(-4.77 -4.407)" fill="#fff"/>
</svg>
