<svg xmlns="http://www.w3.org/2000/svg" width="43" height="43" viewBox="0 0 43 43">
  <g id="Grupo_3026" data-name="Grupo 3026" transform="translate(-260 -1475)">
    <path id="Caminho_2249" data-name="Caminho 2249" d="M21.5,0A21.5,21.5,0,1,1,0,21.5,21.5,21.5,0,0,1,21.5,0Z" transform="translate(260 1475)" fill="#dcefff" opacity="0.69"/>
    <path id="Icon_metro-file-pdf" data-name="Icon metro-file-pdf" d="M20.271,6.785a2.806,2.806,0,0,1,.579.916,2.783,2.783,0,0,1,.241,1.061v13.89a1.153,1.153,0,0,1-1.158,1.158H3.728a1.153,1.153,0,0,1-1.158-1.158V3.361A1.153,1.153,0,0,1,3.728,2.2h10.8a2.784,2.784,0,0,1,1.061.241,2.806,2.806,0,0,1,.916.579ZM14.918,3.843V8.377h4.534a1.317,1.317,0,0,0-.265-.494L15.412,4.109a1.317,1.317,0,0,0-.494-.265Zm4.63,18.424V9.92H14.532a1.153,1.153,0,0,1-1.158-1.158V3.747H4.114V22.267H19.548Zm-6.2-7.15a9.174,9.174,0,0,0,1.013.675,11.966,11.966,0,0,1,1.411-.084q1.772,0,2.134.591a.583.583,0,0,1,.024.627.035.035,0,0,1-.012.024l-.024.024v.012q-.072.458-.856.458a4.974,4.974,0,0,1-1.387-.241,8.792,8.792,0,0,1-1.568-.639,21.711,21.711,0,0,0-4.727,1q-1.845,3.159-2.918,3.159A.7.7,0,0,1,6.1,20.64l-.289-.145q-.012-.012-.072-.06A.5.5,0,0,1,5.67,20a2.619,2.619,0,0,1,.675-1.1,5.827,5.827,0,0,1,1.592-1.164.176.176,0,0,1,.277.072.07.07,0,0,1,.024.048q.627-1.025,1.29-2.375a18.4,18.4,0,0,0,1.254-3.159,9.747,9.747,0,0,1-.368-1.923,4.688,4.688,0,0,1,.078-1.537q.133-.482.506-.482h.265a.508.508,0,0,1,.422.181.963.963,0,0,1,.109.82.261.261,0,0,1-.048.1.314.314,0,0,1,.012.1v.362a15.79,15.79,0,0,1-.169,2.315,6.1,6.1,0,0,0,1.76,2.87ZM6.405,20.073a5.324,5.324,0,0,0,1.652-1.905A6.874,6.874,0,0,0,7,19.181,4.008,4.008,0,0,0,6.405,20.073ZM11.2,8.98a3.585,3.585,0,0,0-.024,1.592q.012-.084.084-.531,0-.036.084-.518a.271.271,0,0,1,.048-.1.035.035,0,0,1-.012-.024.024.024,0,0,0-.006-.018.024.024,0,0,1-.006-.018.694.694,0,0,0-.157-.434.035.035,0,0,1-.012.024V8.98Zm-1.5,7.97a17.686,17.686,0,0,1,3.424-.977,1.818,1.818,0,0,1-.157-.115,2.159,2.159,0,0,1-.193-.163,6.387,6.387,0,0,1-1.531-2.122,16.113,16.113,0,0,1-1,2.375q-.362.675-.543,1Zm7.789-.193a2.885,2.885,0,0,0-1.688-.289,4.561,4.561,0,0,0,1.5.338,1.17,1.17,0,0,0,.217-.012q0-.012-.024-.036Z" transform="translate(269.669 1483.493)" fill="#0f5197"/>
  </g>
</svg>
