<svg xmlns="http://www.w3.org/2000/svg" width="24.986" height="22" viewBox="0 0 24.986 22">
  <g id="Grupo_2934" data-name="Grupo 2934" transform="translate(0)">
    <path id="Caminho_2243" data-name="Caminho 2243" d="M284.641,376.25h-10.78a.866.866,0,0,0,0,1.732h10.78a.866.866,0,1,0,0-1.732Z" transform="translate(-263.939 -359.325)" fill="#fff"/>
    <path id="Caminho_2244" data-name="Caminho 2244" d="M284.641,322.83h-10.78a.866.866,0,0,0,0,1.732h10.78a.866.866,0,1,0,0-1.732Z" transform="translate(-263.939 -308.815)" fill="#fff"/>
    <path id="Caminho_2245" data-name="Caminho 2245" d="M284.641,269.41h-10.78a.866.866,0,0,0,0,1.732h10.78a.866.866,0,0,0,0-1.732Z" transform="translate(-263.939 -258.305)" fill="#fff"/>
    <path id="Caminho_2246" data-name="Caminho 2246" d="M273,216.861a.866.866,0,0,0,.866.866h10.78a.866.866,0,0,0,0-1.732h-10.78A.866.866,0,0,0,273,216.861Z" transform="translate(-263.943 -207.8)" fill="#fff"/>
    <path id="Caminho_2247" data-name="Caminho 2247" d="M131.753,71.725a.916.916,0,0,0-.016-.154c0-.006,0-.013-.006-.019a.831.831,0,0,0-.04-.126c-.006-.016-.013-.031-.02-.046a.822.822,0,0,0-.051-.094c-.009-.013-.016-.027-.025-.039a.827.827,0,0,0-.094-.115h0l-5.3-5.3h0a.885.885,0,0,0-.115-.1l-.039-.024a.842.842,0,0,0-.094-.051l-.046-.02a.774.774,0,0,0-.124-.039l-.021-.006a.868.868,0,0,0-.154-.016H113.7a.866.866,0,0,0-.866.866V77.382l-5.918,8.847a.866.866,0,0,0,1.193,1.207l4.725-3.083v2.359a.866.866,0,0,0,.866.866h17.19a.867.867,0,0,0,.866-.866V71.742c0-.006,0-.011,0-.017Zm-1.73,14.121H114.565V82.754a.866.866,0,0,0-1.339-.725l-2.515,1.642,3.707-5.542a.866.866,0,0,0,.146-.481V67.311h10.161v4.432a.866.866,0,0,0,.866.866h4.432V85.847Z" transform="translate(-106.77 -65.578)" fill="#fff"/>
  </g>
</svg>
