<svg xmlns="http://www.w3.org/2000/svg" width="15" height="15" viewBox="0 0 15 15">
  <path id="Icon_metro-youtube" data-name="Icon metro-youtube" d="M6.865,1.928,5.852,3.938,4.838,1.928H3.546L5.373,5.111l.011-.006V7.553h.938V5.105l.011.006L8.158,1.928ZM9.6,3.8a.475.475,0,0,1,.469.469V6.147a.469.469,0,1,1-.937,0V4.272A.475.475,0,0,1,9.6,3.8Zm0-.938A1.41,1.41,0,0,0,8.2,4.272V6.147a1.406,1.406,0,1,0,2.812,0V4.272A1.41,1.41,0,0,0,9.6,2.866Zm4.219,0V6.556c-.409.341-.937.547-.937-.668V2.866h-.938V6.078h0c.014.775.178,2.17,1.874,1.036v.439h.938V2.866h-.937Zm1.406,9.375a.469.469,0,0,0-.469.469v.469H15.7v-.469A.469.469,0,0,0,15.227,12.241Zm-4.219.469V15.17c.317.317.938.352.938-.117v-2.2C11.946,12.387,11.477,12.241,11.008,12.709Zm6.486-2.263a1.949,1.949,0,0,0-1.917-1.88c-1.022-.051-3.361-.076-5.416-.076s-4.56.025-5.582.076a1.949,1.949,0,0,0-1.917,1.88c-.061,1.1-.092,1.5-.092,2.049s.031,1.375.092,2.476a1.949,1.949,0,0,0,1.917,1.88c1.022.051,3.527.076,5.582.076s4.394-.025,5.416-.076a1.949,1.949,0,0,0,1.917-1.88q.077-1.375.077-2.476c0-.734-.026-1.133-.077-2.049ZM5.383,15.991H4.446V11.3H3.508v-.938H6.321V11.3H5.383Zm3.75,0H8.2v-.439c-1.782,1-1.859.032-1.874-.743h0V12.241h.938v2.583c0,.566.528.512.938.17V12.241h.937Zm3.75-.951c0,.98-1,1.266-1.875.5v.447h-.938V10.366h.938v1.523c.938-.938,1.875-.586,1.875.352Zm3.75-1.862v.469H14.758v.938a.469.469,0,0,0,.938,0v-.469h.937v.469a1.406,1.406,0,1,1-2.812,0V12.709a1.406,1.406,0,1,1,2.812,0Z" transform="translate(-2.571 -1.928)" fill="#fff"/>
</svg>
