<svg xmlns="http://www.w3.org/2000/svg" width="32.706" height="33.225" viewBox="0 0 32.706 33.225">
  <g id="Grupo_743" data-name="Grupo 743" transform="translate(-8947.204 -1194)">
    <path id="Caminho_421" data-name="Caminho 421" d="M104.329,7.315H99.236V.519A.519.519,0,0,0,98.717,0H82.723A.519.519,0,0,0,82.2.519v6.8H77.132a2.756,2.756,0,0,0-2.757,2.751V22.842A2.756,2.756,0,0,0,77.132,25.6h5.088v7.107a.519.519,0,0,0,.519.519h16a.519.519,0,0,0,.519-.519V25.578h5.082a2.757,2.757,0,0,0,2.741-2.736V10.066a2.756,2.756,0,0,0-2.751-2.751Zm-21.1-6.307h15V7.315h-15Zm15.008,31.21H83.226V21.072H98.234Zm7.839-9.375a1.749,1.749,0,0,1-1.749,1.75H99.241v-3.52h1.988a.519.519,0,0,0,0-1.007h-21a.519.519,0,0,0,0,1.007h1.994v3.5H77.131a1.749,1.749,0,0,1-1.749-1.729V10.067a1.75,1.75,0,0,1,1.749-1.76h27.2a1.75,1.75,0,0,1,1.744,1.744Z" transform="translate(8872.829 1194)" fill="#f80"/>
    <path id="Caminho_422" data-name="Caminho 422" d="M499.109,187.34a1.765,1.765,0,1,0,1.243.517,1.759,1.759,0,0,0-1.243-.517Zm0,2.513a.753.753,0,1,1,.753-.753.753.753,0,0,1-.753.753Z" transform="translate(8474.949 1017.775)" fill="#f80"/>
    <path id="Caminho_423" data-name="Caminho 423" d="M256.321,389.46H244.542a.519.519,0,0,0,0,1.007h11.779a.519.519,0,0,0,0-1.007Z" transform="translate(8713.128 827.647)" fill="#f80"/>
    <path id="Caminho_424" data-name="Caminho 424" d="M252.319,440.4H240.54a.519.519,0,1,0,0,1.007h11.779a.519.519,0,1,0,0-1.007Z" transform="translate(8717.129 779.739)" fill="#f80"/>
    <path id="Caminho_425" data-name="Caminho 425" d="M253.741,491.84h-9.2a.519.519,0,0,0,0,1.007h9.2a.519.519,0,0,0,0-1.007Z" transform="translate(8713.128 731.341)" fill="#f80"/>
    <path id="Caminho_426" data-name="Caminho 426" d="M417.119,187.34a1.765,1.765,0,1,0,1.243.517,1.759,1.759,0,0,0-1.243-.517Zm0,2.513a.753.753,0,1,1,.753-.753.752.752,0,0,1-.753.753Z" transform="translate(8552.075 1017.775)" fill="#f80"/>
  </g>
</svg>
