<svg xmlns="http://www.w3.org/2000/svg" width="15.953" height="11.217" viewBox="0 0 15.953 11.217">
  <path id="Icon_awesome-youtube" data-name="Icon awesome-youtube" d="M16.67,6.255a2,2,0,0,0-1.41-1.42A47.371,47.371,0,0,0,9.026,4.5a47.371,47.371,0,0,0-6.233.336,2,2,0,0,0-1.41,1.42A21.028,21.028,0,0,0,1.05,10.12a21.028,21.028,0,0,0,.333,3.865,1.975,1.975,0,0,0,1.41,1.4,47.371,47.371,0,0,0,6.233.336,47.371,47.371,0,0,0,6.233-.336,1.975,1.975,0,0,0,1.41-1.4A21.028,21.028,0,0,0,17,10.12,21.028,21.028,0,0,0,16.67,6.255ZM7.395,12.492V7.748l4.17,2.372-4.17,2.372Z" transform="translate(-1.05 -4.5)" fill="#fff"/>
</svg>
