<svg xmlns="http://www.w3.org/2000/svg" width="33.223" height="33.225" viewBox="0 0 33.223 33.225">
  <g id="Grupo_821" data-name="Grupo 821" transform="translate(-601.831 -1640)">
    <path id="Caminho_430" data-name="Caminho 430" d="M128.852,130.67H116.67v5.537h12.182Zm-1.108,4.43h-9.967v-3.322h9.967Z" transform="translate(487.93 1517.084)" fill="#f80"/>
    <path id="Caminho_431" data-name="Caminho 431" d="M510.883,144.436a2.215,2.215,0,1,0-2.215-2.215A2.214,2.214,0,0,0,510.883,144.436Zm0-3.322a1.108,1.108,0,1,1-1.107,1.108A1.111,1.111,0,0,1,510.883,141.113Z" transform="translate(119.188 1508.302)" fill="#f80"/>
    <path id="Caminho_432" data-name="Caminho 432" d="M99.936,5.511H78.911l22.2-4.441a.552.552,0,0,0,.432-.653.548.548,0,0,0-.653-.432L73.258,5.511A3.286,3.286,0,0,0,70,8.794V33.2h33.223V8.794a3.287,3.287,0,0,0-3.284-3.284ZM73.28,6.618H99.942a2.176,2.176,0,0,1,2.176,2.176V14.37H71.1V8.794A2.176,2.176,0,0,1,73.28,6.618Zm3.915,25.471v-4.43h5.537v1.069a1.148,1.148,0,0,0,1.146,1.146h4.906a1.148,1.148,0,0,0,1.146-1.146V27.66h6.091v4.43Zm6.645-10.52h4.983v1.069a.038.038,0,0,1-.039.039H83.878a.038.038,0,0,1-.039-.039Zm.039,2.215h4.906a1.148,1.148,0,0,0,1.146-1.146V21.569h5.205a.888.888,0,0,1,.886.886v4.1H77.195v-4.1a.888.888,0,0,1,.886-.886h4.651v1.069a1.148,1.148,0,0,0,1.146,1.146Zm-.039,3.876h4.983v1.069a.038.038,0,0,1-.039.039H83.878a.038.038,0,0,1-.039-.039Zm13.289,4.43V22.455a2,2,0,0,0-1.994-1.994H78.081a2,2,0,0,0-1.994,1.994v9.635H71.1V15.478h31.009V32.089Z" transform="translate(531.835 1640.028)" fill="#f80"/>
    <path id="Caminho_433" data-name="Caminho 433" d="M274.857,289.33h-8.306a.554.554,0,0,0,0,1.107h8.306a.554.554,0,0,0,0-1.107Z" transform="translate(347.461 1367.837)" fill="#f80"/>
    <path id="Caminho_434" data-name="Caminho 434" d="M350.552,150.443h.554a.554.554,0,1,0,0-1.107h-.554a.554.554,0,1,0,0,1.107Z" transform="translate(268.445 1499.525)" fill="#f80"/>
    <path id="Caminho_435" data-name="Caminho 435" d="M350.552,187.773h.554a.554.554,0,1,0,0-1.107h-.554a.554.554,0,1,0,0,1.107Z" transform="translate(268.445 1464.41)" fill="#f80"/>
    <path id="Caminho_436" data-name="Caminho 436" d="M397.222,150.443h.554a.554.554,0,1,0,0-1.107h-.554a.554.554,0,0,0,0,1.107Z" transform="translate(224.544 1499.525)" fill="#f80"/>
    <path id="Caminho_437" data-name="Caminho 437" d="M397.222,187.773h.554a.554.554,0,1,0,0-1.107h-.554a.554.554,0,0,0,0,1.107Z" transform="translate(224.544 1464.41)" fill="#f80"/>
  </g>
</svg>
