<svg xmlns="http://www.w3.org/2000/svg" width="24.531" height="33.225" viewBox="0 0 24.531 33.225">
  <path id="Caminho_544" data-name="Caminho 544" d="M215.3,76.885H204.149a4.122,4.122,0,0,0-4.122,4.122v24.98a4.122,4.122,0,0,0,4.122,4.122h16.287a4.122,4.122,0,0,0,4.122-4.122V86.141a.458.458,0,0,0-.133-.325l-8.8-8.808a.458.458,0,0,0-.32-.124Zm.458,1.562L223,85.684h-6.779a.458.458,0,0,1-.458-.458Zm4.676,30.747H204.15a3.206,3.206,0,0,1-3.206-3.206V81.008A3.206,3.206,0,0,1,204.15,77.8h10.695v7.424a1.374,1.374,0,0,0,1.374,1.374h7.425v19.388a3.206,3.206,0,0,1-3.206,3.206Z" transform="translate(-200.027 -76.885)" fill="#f80"/>
</svg>
