<svg xmlns="http://www.w3.org/2000/svg" width="24.168" height="27.621" viewBox="0 0 24.168 27.621">
  <path id="Icon_awesome-shopping-bag" data-name="Icon awesome-shopping-bag" d="M18.99,8.632V6.905a6.905,6.905,0,1,0-13.811,0V8.632H0V23.305a4.316,4.316,0,0,0,4.316,4.316H19.853a4.316,4.316,0,0,0,4.316-4.316V8.632ZM8.632,6.905a3.453,3.453,0,1,1,6.905,0V8.632H8.632Zm8.632,6.474a1.295,1.295,0,1,1,1.295-1.295A1.295,1.295,0,0,1,17.263,13.379Zm-10.358,0A1.295,1.295,0,1,1,8.2,12.084,1.295,1.295,0,0,1,6.905,13.379Z" fill="#fff"/>
</svg>
