<svg xmlns="http://www.w3.org/2000/svg" width="35.438" height="24.2" viewBox="0 0 35.438 24.2">
  <g id="Grupo_938" data-name="Grupo 938" transform="translate(-158.302 -1276.42)">
    <path id="Caminho_594" data-name="Caminho 594" d="M34.553,9.721a15.264,15.264,0,0,0-.96-4.041,16.822,16.822,0,0,0-3.024-5L30.481.591A1.722,1.722,0,0,0,28.873.055c-1.712.288-3.424.56-5.161.72-1.344.12-2.688.216-4.041.264-1.256.04-2.5.088-3.761.008-.9-.056-1.816-.056-2.72-.136-.344-.032-.7-.024-1.04-.072C11.118.7,10.07.6,9.03.463,8.094.343,7.174.159,6.237.031a2.249,2.249,0,0,0-1.96.576,11.484,11.484,0,0,0-1.8,2.4A16.794,16.794,0,0,0,1,6.208C.893,6.52.773,6.84.669,7.16V7.144c-.056.16-.1.328-.152.5A9.892,9.892,0,0,0,.093,9.617,11.615,11.615,0,0,0,0,11.009c-.016.9.008,1.792.08,2.68a15.264,15.264,0,0,0,.96,4.041,15.334,15.334,0,0,0,2.8,4.753.7.7,0,0,1,.048.064,1.459,1.459,0,0,1,.232.216,1.706,1.706,0,0,0,1.64.584c1.712-.288,3.424-.56,5.161-.72,1.344-.12,2.688-.216,4.041-.264,1.256-.04,2.5-.088,3.761-.008.9.056,1.816.056,2.72.136.344.032.7.024,1.04.072,1.032.144,2.08.24,3.12.376.936.12,1.864.3,2.792.432a2.253,2.253,0,0,0,1.96-.584,11.484,11.484,0,0,0,1.8-2.4,16.794,16.794,0,0,0,1.472-3.2c.112-.312.232-.632.336-.952v.016c.056-.16.1-.328.152-.5a9.892,9.892,0,0,0,.424-1.976,11.616,11.616,0,0,0,.088-1.392c.016-.88-.016-1.776-.08-2.664ZM7.35,22.082A15.261,15.261,0,0,1,2.709,11.409,12.982,12.982,0,0,1,7.382,1.264l.5.624a12.154,12.154,0,0,0-4.369,9.521,14.424,14.424,0,0,0,4.4,10.1Zm2.328-8.233a1.5,1.5,0,0,1,.448-1.072,1.522,1.522,0,1,1-.448,1.072ZM14.2,18.69a1.516,1.516,0,1,1,.008-2.136A1.516,1.516,0,0,1,14.2,18.69Zm-.44-4.841a1.5,1.5,0,0,1,.448-1.072,1.522,1.522,0,1,1-.448,1.072Zm4.521,4.841a1.516,1.516,0,1,1,.008-2.136A1.516,1.516,0,0,1,18.279,18.69Zm-.44-4.841a1.5,1.5,0,0,1,.448-1.072,1.522,1.522,0,1,1-.448,1.072ZM22.28,18.69a1.516,1.516,0,1,1,.008-2.136,1.516,1.516,0,0,1-.008,2.136Zm2.24-3.761a1.516,1.516,0,1,1,.008-2.136,1.516,1.516,0,0,1-.008,2.136Zm-7.161-4.121c-6.1,0-11.042-1.56-11.042-3.48s4.945-3.48,11.042-3.48S28.4,5.408,28.4,7.328,23.456,10.809,17.359,10.809Zm9.985,11.33-.5-.624a12.154,12.154,0,0,0,4.369-9.521,14.443,14.443,0,0,0-4.4-10.1l.552-.576a15.261,15.261,0,0,1,4.641,10.674A12.926,12.926,0,0,1,27.344,22.138Z" transform="translate(158.702 1276.82)" fill="none" stroke="#f80" stroke-width="0.8"/>
    <g id="Grupo_937" data-name="Grupo 937" transform="translate(-135.198 11)">
      <path id="Caminho_584" data-name="Caminho 584" d="M103.781,72.669a7.462,7.462,0,0,0-1.2.459c-.514.265-1.012.452-1.028.888s.444.607.958.864a8.305,8.305,0,0,0,1.269.475.322.322,0,0,0,.148.039.326.326,0,0,0,.335-.327v-2.11a.332.332,0,0,0-.483-.288Z" transform="translate(200.521 1199.087)" fill="none" stroke="#f80" stroke-width="0.5"/>
      <path id="Caminho_586" data-name="Caminho 586" d="M167.923,75.095h-8.175a.385.385,0,0,0-.389.389v1.791a.385.385,0,0,0,.389.389h8.175a.385.385,0,0,0,.389-.389V75.484A.39.39,0,0,0,167.923,75.095Z" transform="translate(147.217 1196.816)" fill="none" stroke="#f80" stroke-width="0.5"/>
      <path id="Caminho_588" data-name="Caminho 588" d="M303.311,72.107a8.3,8.3,0,0,0-1.269-.475.322.322,0,0,0-.148-.039.326.326,0,0,0-.335.327v2.118a.322.322,0,0,0,.039.148.335.335,0,0,0,.452.14,7.462,7.462,0,0,0,1.2-.459c.514-.265,1.012-.452,1.028-.888S303.832,72.372,303.311,72.107Z" transform="translate(16.088 1200.045)" fill="none" stroke="#f80" stroke-width="0.5"/>
    </g>
  </g>
</svg>
