<svg xmlns="http://www.w3.org/2000/svg" width="41.062" height="46.613" viewBox="0 0 41.062 46.613">
  <path id="Caminho_2058" data-name="Caminho 2058" d="M140.31,71.5a1.633,1.633,0,0,1-.9-.266l-2.1-1.354a38.255,38.255,0,0,1-17.535-32.228,1.653,1.653,0,0,1,.821-1.432l18.866-11.1h0a1.64,1.64,0,0,1,1.687,0l18.866,11.1h0a1.653,1.653,0,0,1,.821,1.432,38.257,38.257,0,0,1-17.535,32.185l-2.1,1.354h0a1.629,1.629,0,0,1-.9.311Zm-17.2-32.906a34.928,34.928,0,0,0,16.015,28.467l1.188.766,1.188-.766a34.928,34.928,0,0,0,16.015-28.467l-17.2-10.11Z" transform="translate(-119.778 -24.883)" fill="#f80"/>
</svg>
