<svg xmlns="http://www.w3.org/2000/svg" width="27.315" height="27.259" viewBox="0 0 27.315 27.259">
  <path id="noun-work-3302957" d="M97.315,17.326V25A3.411,3.411,0,0,1,93.9,28.41H73.414A3.411,3.411,0,0,1,70,25V17.326l11.1,1.517v.764a2.561,2.561,0,1,0,5.121,0v-.764Zm0-5.953v4.239l-11.1,1.517v-.241a2.561,2.561,0,1,0-5.121,0v.241L70,15.612V11.373a3.411,3.411,0,0,1,3.414-3.407h1.707V4.558a3.411,3.411,0,0,1,3.414-3.407H88.779a3.411,3.411,0,0,1,3.414,3.407V7.966H93.9A3.411,3.411,0,0,1,97.315,11.373ZM83.657,16.65a.759.759,0,0,1,.759.759v2.276a.759.759,0,1,1-1.517,0V17.408A.759.759,0,0,1,83.657,16.65Zm-6.3-8.684h12.59V5.091a1.708,1.708,0,0,0-1.707-1.7H79.069a1.708,1.708,0,0,0-1.707,1.7Z" transform="translate(-70 -1.151)" fill="#fff" fill-rule="evenodd"/>
</svg>
