<svg xmlns="http://www.w3.org/2000/svg" width="22.514" height="28.808" viewBox="0 0 22.514 28.808">
  <path id="Caminho_2248" data-name="Caminho 2248" d="M159.156,27.283c0-2.512-3.664-5.052-7.268-6.057a8.054,8.054,0,0,0,2.777-6.234c0-4.254-3.043-7.712-6.766-7.712s-6.766,3.457-6.766,7.712a8.145,8.145,0,0,0,2.777,6.234c-3.6,1-7.268,3.545-7.268,6.057,0,2.63,3.073,4.491,8.243,5.052l-.148,1.182a.592.592,0,0,0,.236.561l2.57,1.891a.591.591,0,0,0,.709,0l2.57-1.891a.592.592,0,0,0,.236-.561l-.148-1.182c5.171-.562,8.244-2.423,8.244-5.053ZM142.315,14.992c0-3.6,2.512-6.53,5.584-6.53s5.584,2.925,5.584,6.53-2.512,6.53-5.584,6.53-5.584-2.925-5.584-6.53Zm-4.491,12.291c0-1.773,3.339-4.2,6.884-5.052l1.3,2.1-.946,6.825c-4.4-.473-7.239-1.98-7.239-3.87ZM147.9,34.728l-1.95-1.418,1.241-9.041a.449.449,0,0,0-.089-.384l-.886-1.418a5.908,5.908,0,0,0,3.309,0l-.886,1.418a.909.909,0,0,0-.089.384l1.241,9.041Zm2.837-3.575-.916-6.825,1.3-2.1c3.546.827,6.884,3.25,6.884,5.052-.029,1.891-2.866,3.4-7.268,3.871Z" transform="translate(-136.642 -7.28)" fill="#fff"/>
</svg>
