<svg xmlns="http://www.w3.org/2000/svg" width="43" height="43" viewBox="0 0 43 43">
  <g id="Grupo_2978" data-name="Grupo 2978" transform="translate(-320 -4133)">
    <path id="Caminho_1437" data-name="Caminho 1437" d="M88.875,24.792s3.414-5.286,6.387-5.726a4.267,4.267,0,0,1,3.964.771c2.643,1.432,4.295,1.321,6.938-.11a4.5,4.5,0,0,1,3.744-.661c2.973.441,6.387,5.726,6.387,5.726-6.387,11.122-21.033,11.122-27.42,0ZM102.529,4.2a7,7,0,0,1,7.047,6.938,7.1,7.1,0,0,1-7.047,7.047,7,7,0,0,1-6.938-7.047A6.909,6.909,0,0,1,102.529,4.2Z" transform="translate(238.915 4135.833)" fill="#fff" fill-rule="evenodd"/>
    <g id="Elipse_78" data-name="Elipse 78" transform="translate(320 4133)" fill="none" stroke="#fff" stroke-width="1">
      <circle cx="21.5" cy="21.5" r="21.5" stroke="none"/>
      <circle cx="21.5" cy="21.5" r="21" fill="none"/>
    </g>
  </g>
</svg>
