<svg xmlns="http://www.w3.org/2000/svg" width="32.125" height="32.125" viewBox="0 0 32.125 32.125">
  <g id="noun-all-3455826" transform="translate(-166.235 -96.238)">
    <path id="Caminho_2259" data-name="Caminho 2259" d="M167,96.238a.765.765,0,0,0-.768.768v13a.765.765,0,0,0,.768.762h13a.765.765,0,0,0,.762-.762v-13a.765.765,0,0,0-.762-.768Zm.762,1.53h11.473v11.473H167.765Z" transform="translate(0 0)" fill="#f80"/>
    <path id="Caminho_2260" data-name="Caminho 2260" d="M368.263,96.238a.765.765,0,0,0-.762.768v13a.765.765,0,0,0,.762.762h13a.765.765,0,0,0,.768-.762v-13a.765.765,0,0,0-.768-.768Zm.768,1.53H380.5v11.473H369.031Z" transform="translate(-183.674 0)" fill="#f80"/>
    <path id="Caminho_2261" data-name="Caminho 2261" d="M167,297.5a.765.765,0,0,0-.768.762v13a.765.765,0,0,0,.768.768h13a.765.765,0,0,0,.762-.768v-13a.765.765,0,0,0-.762-.762Zm.762,1.53h11.473V310.5H167.765Z" transform="translate(0 -183.67)" fill="#f80"/>
    <path id="Caminho_2262" data-name="Caminho 2262" d="M368.263,297.5a.765.765,0,0,0-.762.762v13a.765.765,0,0,0,.762.768h13a.765.765,0,0,0,.768-.768v-13a.765.765,0,0,0-.768-.762Zm.768,1.53H380.5V310.5H369.031Z" transform="translate(-183.674 -183.67)" fill="#f80"/>
  </g>
</svg>
