<svg xmlns="http://www.w3.org/2000/svg" width="66.482" height="46.745" viewBox="0 0 66.482 46.745">
  <g id="Grupo_1566" data-name="Grupo 1566" transform="translate(-545.356 -1206.586)">
    <path id="Icon_awesome-youtube" data-name="Icon awesome-youtube" d="M66.143,11.814A8.354,8.354,0,0,0,60.265,5.9C55.081,4.5,34.291,4.5,34.291,4.5S13.5,4.5,8.317,5.9a8.354,8.354,0,0,0-5.878,5.916C1.05,17.032,1.05,27.92,1.05,27.92s0,10.887,1.389,16.106a8.229,8.229,0,0,0,5.878,5.821c5.185,1.4,25.974,1.4,25.974,1.4s20.789,0,25.974-1.4a8.229,8.229,0,0,0,5.878-5.821c1.389-5.218,1.389-16.106,1.389-16.106s0-10.887-1.389-16.106ZM27.492,37.8V18.035L44.868,27.92,27.492,37.8Z" transform="translate(544.306 1202.086)" fill="red"/>
    <path id="Polígono_1" data-name="Polígono 1" d="M10.274,0,20.548,17.531H0Z" transform="translate(589.268 1219.684) rotate(90)" fill="#fff"/>
  </g>
</svg>
