<svg xmlns="http://www.w3.org/2000/svg" xmlns:xlink="http://www.w3.org/1999/xlink" width="44.267" height="44.267" viewBox="0 0 44.267 44.267">
  <defs>
    <linearGradient id="linear-gradient" x1="0.5" x2="0.5" y2="1" gradientUnits="objectBoundingBox">
      <stop offset="0" stop-color="#0f5197"/>
      <stop offset="1" stop-color="#08f"/>
    </linearGradient>
  </defs>
  <g id="Grupo_1814" data-name="Grupo 1814" transform="translate(-767.499 -2308)">
    <path id="Caminho_1459" data-name="Caminho 1459" d="M401.121,317.034a.738.738,0,0,0-.615-.505l-4.261-.5-1.8-3.9a.738.738,0,0,0-1.34,0l-1.8,3.9-4.261.5a.738.738,0,0,0-.414,1.275l3.151,2.912-.838,4.208a.738.738,0,0,0,1.084.788l3.743-2.1,3.743,2.1h0a.738.738,0,0,0,1.084-.788l-.838-4.208,3.151-2.912h0A.738.738,0,0,0,401.121,317.034Zm-4.657,2.878a.738.738,0,0,0-.223.686l.606,3.043-2.707-1.517h0a.737.737,0,0,0-.721,0l-2.707,1.517.606-3.043h0a.736.736,0,0,0-.223-.686l-2.279-2.106,3.082-.364a.738.738,0,0,0,.583-.424l1.3-2.818,1.3,2.818a.739.739,0,0,0,.584.424l3.082.364Z" transform="translate(406.428 2021.219)" fill="url(#linear-gradient)"/>
    <path id="Caminho_1460" data-name="Caminho 1460" d="M137.347,51.25V37.339a3.939,3.939,0,0,0-3.935-3.935h-2.459v-2.46a2.951,2.951,0,0,0-5.9,0V33.4H110.295v-2.46a2.951,2.951,0,0,0-5.9,0V33.4h-2.459A3.939,3.939,0,0,0,98,37.339V63.406a3.939,3.939,0,0,0,3.935,3.935h19.321a11.553,11.553,0,1,0,16.092-16.092Zm-10.329-20.3a.984.984,0,0,1,1.968,0v5.411a.984.984,0,0,1-1.968,0Zm-20.658,0a.984.984,0,0,1,1.968,0v5.411a.984.984,0,0,1-1.968,0Zm-4.427,4.427h2.459v.983a2.951,2.951,0,0,0,5.9,0v-.983H125.05v.983a2.951,2.951,0,0,0,5.9,0v-.983h2.459a1.97,1.97,0,0,1,1.968,1.968v4.918H99.966V37.34a1.97,1.97,0,0,1,1.968-1.968Zm0,30a1.97,1.97,0,0,1-1.968-1.968V44.225h35.414v5.909a11.552,11.552,0,0,0-15.241,15.241Zm28.774,4.919a9.6,9.6,0,1,1,6.779-2.812,9.593,9.593,0,0,1-6.779,2.812Z" transform="translate(669.501 2280.007)" fill="url(#linear-gradient)"/>
  </g>
</svg>
