<svg xmlns="http://www.w3.org/2000/svg" xmlns:xlink="http://www.w3.org/1999/xlink" width="45.326" height="44.266" viewBox="0 0 45.326 44.266">
  <defs>
    <linearGradient id="linear-gradient" x1="0.5" x2="0.5" y2="1" gradientUnits="objectBoundingBox">
      <stop offset="0" stop-color="#0f5197"/>
      <stop offset="1" stop-color="#08f"/>
    </linearGradient>
  </defs>
  <g id="Grupo_1824" data-name="Grupo 1824" transform="translate(-541.926 -2258.002)">
    <path id="Caminho_1465" data-name="Caminho 1465" d="M95.56,120.161H79.97a4.108,4.108,0,0,1-4.138-4.138V85.806a4.107,4.107,0,0,1,4.138-4.138H95.56A4.108,4.108,0,0,1,99.7,85.806v30.121a4.13,4.13,0,0,1-4.138,4.234ZM79.97,83.593a2.178,2.178,0,0,0-2.213,2.213v30.121a2.178,2.178,0,0,0,2.213,2.213H95.56a2.178,2.178,0,0,0,2.213-2.213V85.806a2.178,2.178,0,0,0-2.213-2.213Z" transform="translate(466.094 2182.106)" fill="url(#linear-gradient)"/>
    <path id="Uni達o_1" data-name="Uni達o 1" d="M-15592.959,1128.878a1.923,1.923,0,0,1,.963-1.668v-11.128h1.925v11.129a1.924,1.924,0,0,1,.963,1.667,1.927,1.927,0,0,1-1.926,1.925A1.923,1.923,0,0,1-15592.959,1128.878Z" transform="translate(16144.894 1141.92)" fill="url(#linear-gradient)"/>
    <path id="Caminho_1468" data-name="Caminho 1468" d="M315,95.535V93.61a2.238,2.238,0,0,0,2.213-2.213V61.276l5.2-5.2a4.223,4.223,0,0,1,2.983-1.251,4.4,4.4,0,0,1,2.983,1.251L339.347,67.05a4.223,4.223,0,0,1,1.251,2.983,4.4,4.4,0,0,1-1.251,2.983L317.983,94.284A4.223,4.223,0,0,1,315,95.535Zm4.138-33.393V90.435L337.9,71.669a2.271,2.271,0,0,0,.674-1.54,1.914,1.914,0,0,0-.674-1.54L326.933,57.523a2.266,2.266,0,0,0-3.176,0Z" transform="translate(246.654 2206.732)" fill="url(#linear-gradient)"/>
    <path id="Uni達o_2" data-name="Uni達o 2" d="M-15592.38,1127.157a1.886,1.886,0,0,1-.579-1.346,1.9,1.9,0,0,1,.579-1.35,1.935,1.935,0,0,1,1.947-.487l7.895-7.891,1.362,1.358-7.977,7.976a1.872,1.872,0,0,1-.535,1.74,1.624,1.624,0,0,1-1.347.579A1.9,1.9,0,0,1-15592.38,1127.157Z" transform="translate(16166.449 1147.492)" fill="url(#linear-gradient)"/>
  </g>
</svg>
