<svg xmlns="http://www.w3.org/2000/svg" xmlns:xlink="http://www.w3.org/1999/xlink" width="48.061" height="44.55" viewBox="0 0 48.061 44.55">
  <defs>
    <linearGradient id="linear-gradient" x1="0.5" x2="0.5" y2="1" gradientUnits="objectBoundingBox">
      <stop offset="0" stop-color="#0f5197"/>
      <stop offset="1" stop-color="#08f"/>
    </linearGradient>
  </defs>
  <g id="Grupo_1825" data-name="Grupo 1825" transform="translate(-955.751 -1959)">
    <path id="Caminho_1478" data-name="Caminho 1478" d="M132.9,58.834v-.052a11.211,11.211,0,0,0-20.59-6.156,9.773,9.773,0,0,0-2.483-.673,9.034,9.034,0,0,0,.621-3.362,9.5,9.5,0,1,0-15.417,7.45,3.523,3.523,0,0,1,1.293,2.121,8.7,8.7,0,0,0,1.966,17.175h11.588a9.085,9.085,0,0,0,18.106,0h.983a8.677,8.677,0,0,0,8.691-8.691,8.5,8.5,0,0,0-4.759-7.812ZM93.011,48.384a7.943,7.943,0,0,1,15.882.258,7.769,7.769,0,0,1-3.052,6.26,5.037,5.037,0,0,0-1.862,3.932v.31h-2.225V54.489a3.653,3.653,0,0,0,2.845-3.518,3.621,3.621,0,1,0-4.4,3.518v4.656H97.925v-.362A5.184,5.184,0,0,0,96.011,54.8a7.871,7.871,0,0,1-3-6.415Zm12.778,16.5v.207a.817.817,0,0,1-.828.828H96.942a.817.817,0,0,1-.828-.828v-.207a.817.817,0,0,1,.828-.828h8.019a.851.851,0,0,1,.828.827Zm-2.276,2.587c-.259.828-.983,1.656-1.656,1.656H99.994c-.673,0-1.345-.828-1.656-1.656Zm2.276-5.794a.817.817,0,0,1-.828.828H96.942a.817.817,0,0,1-.828-.828v-.207a.817.817,0,0,1,.828-.828h7.966a.817.817,0,0,1,.828.828v.207Zm-4.811-8.691a2.069,2.069,0,1,1,2.069-2.069A2.075,2.075,0,0,1,100.978,52.988Zm18,29.074a7.553,7.553,0,1,1,7.553-7.553A7.562,7.562,0,0,1,118.981,82.062Zm10.036-8.329h-.983a9.085,9.085,0,0,0-18.106,0H98.287a7.154,7.154,0,0,1-7.139-7.139,7.227,7.227,0,0,1,3.725-6.26,2.269,2.269,0,0,0-.31,1.19v.207a2.467,2.467,0,0,0,.621,1.6,2.225,2.225,0,0,0-.621,1.6v.207a2.416,2.416,0,0,0,2.224,2.38c.31,1.656,1.656,3.259,3.259,3.259h1.862c1.6,0,2.949-1.6,3.259-3.259a2.379,2.379,0,0,0,2.224-2.38v-.207a2.467,2.467,0,0,0-.621-1.6,2.225,2.225,0,0,0,.621-1.6v-.207a2.391,2.391,0,0,0-1.811-2.328v-.414a3.419,3.419,0,0,1,1.242-2.69,10.3,10.3,0,0,0,2.328-2.638,7.9,7.9,0,0,1,3.1.828.77.77,0,0,0,1.035-.31,9.681,9.681,0,0,1,18.107,4.76v.517a.853.853,0,0,0,.466.776,7.139,7.139,0,0,1-2.845,13.709Z" transform="translate(866.155 1919.884)" fill="url(#linear-gradient)"/>
    <path id="Caminho_1479" data-name="Caminho 1479" d="M360.883,384.172l-5.018,5.018-2.587-2.587a.768.768,0,1,0-1.087,1.087l3.156,3.156a.887.887,0,0,0,1.138,0l5.536-5.536a.75.75,0,0,0,0-1.087.771.771,0,0,0-1.138-.052Z" transform="translate(628.03 1606.91)" fill="url(#linear-gradient)"/>
  </g>
</svg>
