<svg xmlns="http://www.w3.org/2000/svg" width="33.1" height="45.919" viewBox="0 0 33.1 45.919">
  <g id="Grupo_3030" data-name="Grupo 3030" transform="translate(-325 -3200.834)">
    <path id="Caminho_1532" data-name="Caminho 1532" d="M173.042,11.1a2.819,2.819,0,0,1-2.87-2.87V0H151.04a2.819,2.819,0,0,0-2.87,2.87V43.049a2.819,2.819,0,0,0,2.87,2.87H178.4a2.819,2.819,0,0,0,2.87-2.87V11.1Zm6.314,31.952a.9.9,0,0,1-.957.957H151.04a.9.9,0,0,1-.957-.957V2.87a.9.9,0,0,1,.957-.957h17.22V8.227a4.737,4.737,0,0,0,4.783,4.783h6.314Z" transform="translate(176.83 3200.834)" fill="#f80"/>
    <path id="Caminho_1533" data-name="Caminho 1533" d="M440.785,19.9h7.271l-8.228-8.227v7.271a1.029,1.029,0,0,0,.957.956Z" transform="translate(-90.914 3190.476)" fill="#f80"/>
    <path id="Caminho_1534" data-name="Caminho 1534" d="M202.789,203.748h15.881a.957.957,0,0,0,0-1.914H202.789a.9.9,0,0,0-.957.957A.959.959,0,0,0,202.789,203.748Z" transform="translate(127.568 3015.904)" fill="#f80"/>
    <path id="Caminho_1535" data-name="Caminho 1535" d="M201.83,275.119a.9.9,0,0,0,.957.957h22.385a.957.957,0,0,0,0-1.914H202.787A.959.959,0,0,0,201.83,275.119Z" transform="translate(127.57 2949.507)" fill="#f80"/>
    <path id="Caminho_1536" data-name="Caminho 1536" d="M225.174,343H202.789a.957.957,0,1,0,0,1.914h22.385a.9.9,0,0,0,.957-.957A.959.959,0,0,0,225.174,343Z" transform="translate(127.568 2886.314)" fill="#f80"/>
    <path id="Caminho_1537" data-name="Caminho 1537" d="M225.174,411.83H202.789a.957.957,0,1,0,0,1.914h22.385a.9.9,0,0,0,.957-.957A.959.959,0,0,0,225.174,411.83Z" transform="translate(127.568 2823.128)" fill="#f80"/>
    <path id="Caminho_1538" data-name="Caminho 1538" d="M225.174,480.67H202.789a.957.957,0,1,0,0,1.914h22.385a.9.9,0,0,0,.957-.957A.959.959,0,0,0,225.174,480.67Z" transform="translate(127.568 2759.932)" fill="#f80"/>
  </g>
</svg>
