<svg xmlns="http://www.w3.org/2000/svg" xmlns:xlink="http://www.w3.org/1999/xlink" width="73.376" height="46.533" viewBox="0 0 73.376 46.533">
  <defs>
    <linearGradient id="linear-gradient" x1="0.5" x2="0.5" y2="1" gradientUnits="objectBoundingBox">
      <stop offset="0" stop-color="#0f5197"/>
      <stop offset="1" stop-color="#08f"/>
    </linearGradient>
  </defs>
  <g id="Grupo_1854" data-name="Grupo 1854" transform="translate(-726.523 -1843)">
    <path id="Caminho_1489" data-name="Caminho 1489" d="M178.295,163.567H167.733v-2.224h10.562a1.669,1.669,0,0,0,1.667-1.667v-31.13a1.669,1.669,0,0,0-1.667-1.667H166.621l-23.889-.208h-.014a1.67,1.67,0,0,0-1.668,1.668v12.994h-2.224v-13a3.892,3.892,0,0,1,3.925-3.891l23.877.208h11.663a3.9,3.9,0,0,1,3.891,3.891v31.13a3.9,3.9,0,0,1-3.891,3.891Z" transform="translate(593.255 1718.556)" fill="url(#linear-gradient)"/>
    <path id="Caminho_1490" data-name="Caminho 1490" d="M463.369,345.058a7.782,7.782,0,1,1,7.783-7.782A7.791,7.791,0,0,1,463.369,345.058Zm0-13.341a5.559,5.559,0,1,0,5.559,5.559A5.565,5.565,0,0,0,463.369,331.717Z" transform="translate(323.189 1543.732)" fill="url(#linear-gradient)"/>
    <path id="Caminho_1491" data-name="Caminho 1491" d="M405.257,374.75H395.251v2.224h10.006Z" transform="translate(374.63 1505.147)" fill="url(#linear-gradient)"/>
    <path id="Caminho_1492" data-name="Caminho 1492" d="M447.1,216.212H444.32v-2.224H447.1a1.669,1.669,0,0,0,1.668-1.667V201.729a1.659,1.659,0,0,0-.439-1.126L437.655,188.96a1.667,1.667,0,0,0-1.229-.542H425.42v-2.224h11.006a3.9,3.9,0,0,1,2.869,1.262L449.967,199.1a3.89,3.89,0,0,1,1.023,2.63v10.592a3.9,3.9,0,0,1-3.891,3.891Z" transform="translate(348.909 1665.908)" fill="url(#linear-gradient)"/>
    <path id="Caminho_1493" data-name="Caminho 1493" d="M488.464,227.487h-13.9a3.9,3.9,0,0,1-3.891-3.891v-7.226H472.9V223.6a1.669,1.669,0,0,0,1.667,1.667h13.9Z" transform="translate(310.325 1640.182)" fill="url(#linear-gradient)"/>
    <path id="Caminho_1494" data-name="Caminho 1494" d="M125.02,287.928h-21.4a2.506,2.506,0,0,1-2.5-2.5V264.119a2.506,2.506,0,0,1,2.5-2.5h21.4v26.313Zm-21.4-24.09a.279.279,0,0,0-.278.278v21.31a.279.279,0,0,0,.278.278H122.8V263.84H103.619Z" transform="translate(625.406 1601.603)" fill="url(#linear-gradient)"/>
    <path id="Caminho_1495" data-name="Caminho 1495" d="M255.131,287.93h-6.948V261.62h6.948a2.505,2.505,0,0,1,2.5,2.5v21.31a2.505,2.505,0,0,1-2.5,2.5Zm-4.725-2.224h4.725a.279.279,0,0,0,.278-.278V264.121a.279.279,0,0,0-.278-.278h-4.725V285.71Z" transform="translate(500.019 1601.601)" fill="url(#linear-gradient)"/>
    <path id="Caminho_1496" data-name="Caminho 1496" d="M159.581,272.732h-9.45v-7.043h2.224v4.82h5v-4.82h2.223Z" transform="translate(583.617 1598.132)" fill="url(#linear-gradient)"/>
  </g>
</svg>
