<svg xmlns="http://www.w3.org/2000/svg" xmlns:xlink="http://www.w3.org/1999/xlink" width="72.316" height="45.248" viewBox="0 0 72.316 45.248">
  <defs>
    <linearGradient id="linear-gradient" x1="0.5" x2="0.5" y2="1" gradientUnits="objectBoundingBox">
      <stop offset="0" stop-color="#0f5197"/>
      <stop offset="1" stop-color="#08f"/>
    </linearGradient>
  </defs>
  <path id="Caminho_1528" data-name="Caminho 1528" d="M205.585,167.1l-12.209-21.483a1.44,1.44,0,0,0-1.87-.542l-5.61,3.2a1.459,1.459,0,0,0-.543,1.982l1.122,2.262a3.908,3.908,0,0,1-2.711.655,17.412,17.412,0,0,1-2.618-.6c-4.114-1.1-10.975-2.973-17.706,0a13.089,13.089,0,0,0-3.534,2.188c-.617,0-1.87-.224-3.16-.411a10.37,10.37,0,0,1-3.534-2.355L154,150.61h0a1.458,1.458,0,0,0-.543-1.982l-5.609-3.2a1.42,1.42,0,0,0-1.1-.131,1.386,1.386,0,0,0-.879.673l-12.172,21.5a1.422,1.422,0,0,0-.131,1.1,1.385,1.385,0,0,0,.673.878l5.61,3.2a1.4,1.4,0,0,0,.71.187,1.414,1.414,0,0,0,.393,0,1.385,1.385,0,0,0,.879-.673l1.328-2.318h0a42.615,42.615,0,0,0,3.571,4.132l-.3.43a3.725,3.725,0,0,0,.879,5.161,3.536,3.536,0,0,0,2.132.692h.149a3.579,3.579,0,0,0,1.514,3.515,3.594,3.594,0,0,0,2.132.692,3.738,3.738,0,0,0,1.122-.168,3.74,3.74,0,0,0,4.974,2.786,3.738,3.738,0,0,0,1.458,2.15,3.589,3.589,0,0,0,2.132.673h.636a3.627,3.627,0,0,0,2.393-1.5V188.3a16.476,16.476,0,0,0,6.862,1.87,7.338,7.338,0,0,0,2.449-.449,5.35,5.35,0,0,0,3.122-2.543H179a5.142,5.142,0,0,0,2.936-.9,5.052,5.052,0,0,0,1.982-2.973,4.73,4.73,0,0,0,3.029-1.552,6.324,6.324,0,0,0,1.29-2.281,5.42,5.42,0,0,0,3.739-2,3.962,3.962,0,0,0,.543-3.048,4.035,4.035,0,0,0-.486-1.216,12.809,12.809,0,0,0,4.413-3.44l1.084,1.87a1.481,1.481,0,0,0,.879.692,1.414,1.414,0,0,0,.393,0,1.609,1.609,0,0,0,.71-.187l5.609-3.2a1.482,1.482,0,0,0,.692-.878,1.422,1.422,0,0,0-.224-.972Zm-63.308.374-1.87,3.16L135.527,168l11.817-20.736,4.88,2.786Zm8.676,10.059A1.821,1.821,0,0,1,148,175.4l.673-.972.86-1.2a1.838,1.838,0,0,1,3.141,1.889Zm4.038,3.87-.243.336a1.87,1.87,0,1,1-2.972-2.132l.673-.916,1.533-2.15L156,173.7h0a1.869,1.869,0,0,1,2.58-.617,1.756,1.756,0,0,1,.748,1.2,1.872,1.872,0,0,1-.318,1.365l-.673.953Zm4.955,2.58-.449.617a1.87,1.87,0,1,1-2.935-2.169l3.347-4.712h0a1.87,1.87,0,0,1,3.234.841,1.7,1.7,0,0,1-.318,1.366l-1.122,1.589Zm6.282.729-1.178,1.626-.149.224-.468.636a1.87,1.87,0,0,1-3.123-1.87l.149-.243,1.776-2.487h0a1.833,1.833,0,0,1,2.954,2.169Zm24.119-8.227a4,4,0,0,1-2.711,1.216l-11.05-6.918a.935.935,0,0,0-1.29.28.916.916,0,0,0,.3,1.29l10.77,6.768h0a4.262,4.262,0,0,1-.879,1.458,3.047,3.047,0,0,1-2.187.953l-9.76-5.459a.942.942,0,0,0-.916,1.645l9.349,5.216h0a3.084,3.084,0,0,1-1.234,1.87,3.418,3.418,0,0,1-2.748.449h-.112a1.324,1.324,0,0,0-.187-.149l-7.479-3.739h0a.935.935,0,0,0-.841,1.664l7.161,3.609a3.591,3.591,0,0,1-1.87,1.4,10.939,10.939,0,0,1-7.479-1.328l.6-.916a3.706,3.706,0,0,0-2.842-5.834,3.893,3.893,0,0,0,.112-1.739,3.71,3.71,0,0,0-3.814-3.084,3.558,3.558,0,0,0,0-1.084,3.739,3.739,0,0,0-6.675-1.534l-.168.224h0a3.407,3.407,0,0,0-1.2-1.44,3.739,3.739,0,0,0-5.161.86l-.149.187h0a44.412,44.412,0,0,1-3.74-4.375l8.152-14.322a10.735,10.735,0,0,0,4.263,2.6l1.87.262a10.963,10.963,0,0,0-2.02,4.263,4.152,4.152,0,0,0,1.1,3.908,4.076,4.076,0,0,0,3.739,1.122,6.3,6.3,0,0,0,3.628-2.187l1.87-2.487,2.636-.692h0A78.531,78.531,0,0,1,189.6,173.532h.112a.919.919,0,0,0,.187.168,1.872,1.872,0,0,1,.729,1.159,2.112,2.112,0,0,1-.28,1.627Zm.243-4.655a78.534,78.534,0,0,0-20.7-13.257,1.243,1.243,0,0,0-.524,0,1.334,1.334,0,0,0-.374,0l-2.9.767a1.55,1.55,0,0,0-.785.523l-1.87,2.58a4.6,4.6,0,0,1-2.562,1.533,2.242,2.242,0,0,1-2.057-.617,2.354,2.354,0,0,1-.617-2.187,8.958,8.958,0,0,1,2.767-4.693,12.559,12.559,0,0,1,3.384-2.15c6.1-2.674,12.583-.916,16.453.131h0a18.081,18.081,0,0,0,2.936.655,5.741,5.741,0,0,0,3.739-.9l7.891,13.874h0a10.852,10.852,0,0,1-4.805,3.74Zm8.3-1.384-1.757-3.085-8.245-14.491-1.776-3.122,4.861-2.842,11.779,20.754Z" transform="translate(-133.506 -144.925)" fill="url(#linear-gradient)"/>
</svg>
