<svg xmlns="http://www.w3.org/2000/svg" xmlns:xlink="http://www.w3.org/1999/xlink" width="51.371" height="44.267" viewBox="0 0 51.371 44.267">
  <defs>
    <linearGradient id="linear-gradient" x1="0.5" x2="0.5" y2="1" gradientUnits="objectBoundingBox">
      <stop offset="0" stop-color="#0f5197"/>
      <stop offset="1" stop-color="#08f"/>
    </linearGradient>
  </defs>
  <path id="Caminho_1458" data-name="Caminho 1458" d="M145.442,108.649v-2.577a.886.886,0,0,0-.886-.886h-4.1a3.268,3.268,0,0,0-3.189-2.6H115.345a1.5,1.5,0,0,1-1.488-1.5V99.535a3.276,3.276,0,0,0-3.268-3.286H99.518a3.277,3.277,0,0,0-3.268,3.286v36.571a4.349,4.349,0,0,0,3.4,4.287.89.89,0,0,0,.425.124h44.6a3.295,3.295,0,0,0,2.941-3.268V111.758a3.286,3.286,0,0,0-2.179-3.109Zm-1.771-.195h-10.39a4.383,4.383,0,0,0-.584.053l-.177.053a2.652,2.652,0,0,0-.381.106l-.2.089a3.4,3.4,0,0,0-.31.168,1.468,1.468,0,0,0-.195.124l-.115.071h-27.4v-2.161H143.67Zm-13.587,2.719a3.125,3.125,0,0,0-.062.584v1.559a1.5,1.5,0,0,1-1.5,1.532H106.6a3.277,3.277,0,0,0-3.268,3.251v18.007a2.711,2.711,0,0,1-.886,2.028,2.878,2.878,0,0,1-.346.257l-.1.053h0a1.535,1.535,0,0,1-.292.15h-.089a2.349,2.349,0,0,1-.328.106h-.319V110.909h29.157a.815.815,0,0,0,0,.124ZM98.021,136.106V99.535a1.515,1.515,0,0,1,1.5-1.514h11.072a1.515,1.515,0,0,1,1.5,1.514v1.559a3.268,3.268,0,0,0,3.259,3.268h21.921a1.5,1.5,0,0,1,1.329.824h-35.57a.886.886,0,0,0-.886.886v3.064h-2.064a.886.886,0,0,0-.886.886v28.342a2.8,2.8,0,0,1-.4-.328,2.656,2.656,0,0,1-.771-1.931Zm47.828,1.134a1.506,1.506,0,0,1-1.293,1.523H104.22a4.15,4.15,0,0,0,.336-.531.147.147,0,0,1,.071-.124,5.929,5.929,0,0,0,.23-.549h0a.122.122,0,0,1,0-.053,3.647,3.647,0,0,0,.151-.611v-.151a4,4,0,0,0,.1-.638V118.1a1.515,1.515,0,0,1,1.5-1.479h21.921a3.276,3.276,0,0,0,3.268-3.268v-1.594a1.523,1.523,0,0,1,.469-1.1,1.462,1.462,0,0,1,1.019-.416h11.2a1.506,1.506,0,0,1,1.364,1.514Z" transform="translate(-96.249 -96.25)" fill="url(#linear-gradient)"/>
</svg>
