<svg xmlns="http://www.w3.org/2000/svg" xmlns:xlink="http://www.w3.org/1999/xlink" width="51.134" height="46.533" viewBox="0 0 51.134 46.533">
  <defs>
    <linearGradient id="linear-gradient" x1="0.5" x2="0.5" y2="1" gradientUnits="objectBoundingBox">
      <stop offset="0" stop-color="#0f5197"/>
      <stop offset="1" stop-color="#08f"/>
    </linearGradient>
  </defs>
  <g id="Grupo_1959" data-name="Grupo 1959" transform="translate(-771.161 -2126)">
    <path id="Caminho_1526" data-name="Caminho 1526" d="M127.69,52.344a23.26,23.26,0,0,0-17.48,7.918,1.09,1.09,0,0,0,1.638,1.439,21.085,21.085,0,1,1-5.123,16.189l4.436,2.979a1.089,1.089,0,0,0,1.51-.3,1.069,1.069,0,0,0,.185-.606,1.092,1.092,0,0,0-.487-.905l-6.805-5.292a1.111,1.111,0,0,0-.82-.163,1.1,1.1,0,0,0-.691.465l-4.047,7.473a1.088,1.088,0,1,0,1.813,1.2l2.79-4.184a23.269,23.269,0,1,0,23.078-26.218Z" transform="translate(671.332 2073.656)" fill="url(#linear-gradient)"/>
    <path id="Caminho_1527" data-name="Caminho 1527" d="M283.77,160.068a1.27,1.27,0,1,0-1.477,2.062,13.659,13.659,0,0,0,7.455,3.058V167.7a1.1,1.1,0,1,0,2.2,0v-2.439c4.295-.275,7.318-2.817,7.318-6.494,0-3.47-2.2-5.5-7.421-6.664v-8.486a10.348,10.348,0,0,1,4.535,1.993,1.153,1.153,0,0,0,.755.24,1.247,1.247,0,0,0,1.305-1.237,1.392,1.392,0,0,0-.687-1.134,12.069,12.069,0,0,0-5.806-2.2v-1.134a1.1,1.1,0,1,0-2.2,0v1.065c-4.225.206-7.215,2.817-7.215,6.356,0,3.607,2.233,5.5,7.318,6.7v8.623a11.069,11.069,0,0,1-6.08-2.818Zm8.074-5.359c3.745.962,4.775,2.2,4.775,4.226,0,2.268-1.821,3.882-4.775,4.054Zm-6.664-7.318c0-2.1,1.752-3.745,4.672-3.882v8.108c-3.745-1-4.672-2.233-4.672-4.226Z" transform="translate(508.04 1995.818)" fill="url(#linear-gradient)"/>
  </g>
</svg>
