<svg xmlns="http://www.w3.org/2000/svg" xmlns:xlink="http://www.w3.org/1999/xlink" width="50.571" height="44.308" viewBox="0 0 50.571 44.308">
  <defs>
    <linearGradient id="linear-gradient" x1="0.5" x2="0.5" y2="1" gradientUnits="objectBoundingBox">
      <stop offset="0" stop-color="#0f5197"/>
      <stop offset="1" stop-color="#08f"/>
    </linearGradient>
  </defs>
  <g id="Grupo_1853" data-name="Grupo 1853" transform="translate(-296.667 -2016)">
    <path id="Caminho_1486" data-name="Caminho 1486" d="M128.327,79.934h-1.5V45.516a3.089,3.089,0,0,0-3.086-3.086H83.86a3.04,3.04,0,0,0-3.086,3.086V79.934h-1.5a.748.748,0,0,0-.791.791,6.01,6.01,0,0,0,6.013,6.013h38.532a6.01,6.01,0,0,0,6.013-6.013.654.654,0,0,0-.712-.791ZM82.357,45.516a1.5,1.5,0,0,1,1.5-1.5h39.878a1.5,1.5,0,0,1,1.5,1.5V79.934h-17.09a.831.831,0,0,0-.712.4l-1.108,1.9h-5.064l-1.108-1.9a.83.83,0,0,0-.712-.4H82.358Zm40.748,39.64H84.493a4.36,4.36,0,0,1-4.352-3.64h18.91l1.108,1.9a.83.83,0,0,0,.712.4h6.013a.831.831,0,0,0,.712-.4l1.108-1.9h18.91a4.8,4.8,0,0,1-4.51,3.64Z" transform="translate(218.188 1973.57)" fill="url(#linear-gradient)"/>
    <path id="Caminho_1487" data-name="Caminho 1487" d="M167.4,114.256h14.084a.748.748,0,0,0,.791-.791V83.952a.748.748,0,0,0-.791-.791H144.617a.748.748,0,0,0-.791.791v29.512a.748.748,0,0,0,.791.791Zm-18.99-1.582v-1.266l2.928-.87a.781.781,0,0,0,.554-.554,11.444,11.444,0,0,1,.87-2.057.591.591,0,0,0,0-.712l-1.582-2.611,2.928-2.928,2.69,1.5a.719.719,0,0,0,.791,0,16.023,16.023,0,0,1,2.057-.87.955.955,0,0,0,.554-.554l.87-2.928h4.114l.87,2.928a.781.781,0,0,0,.554.554,15.868,15.868,0,0,1,2.057.791.594.594,0,0,0,.712,0l2.69-1.424L175,104.6l-1.5,2.69a.594.594,0,0,0,0,.712c.317.712.633,1.345.87,2.057a.955.955,0,0,0,.554.554l2.928.87v1.266h-9.732a5.122,5.122,0,0,0-10.128,0h-9.573Zm14.638-2.769a3.635,3.635,0,0,1,3.481,2.769h-6.883A3.479,3.479,0,0,1,163.052,109.9ZM145.408,84.743h35.209v27.931h-1.345v-1.9a.953.953,0,0,0-.554-.791l-3.086-.95a12.124,12.124,0,0,0-.633-1.5l1.582-2.849a.842.842,0,0,0-.158-.95l-3.719-3.719a.841.841,0,0,0-.95-.158l-2.849,1.582a12.189,12.189,0,0,0-1.5-.633l-.95-3.086a.786.786,0,0,0-.791-.554h-5.3a.953.953,0,0,0-.791.554l-.95,3.086a8.556,8.556,0,0,0-1.5.633l-2.769-1.5a.842.842,0,0,0-.95.158l-3.719,3.8a.841.841,0,0,0-.158.95l1.582,2.849a12.188,12.188,0,0,0-.633,1.5l-3.086.95a.786.786,0,0,0-.554.791v1.82h-1.345V84.743Z" transform="translate(158.935 1936.637)" fill="url(#linear-gradient)"/>
  </g>
</svg>
