<svg xmlns="http://www.w3.org/2000/svg" xmlns:xlink="http://www.w3.org/1999/xlink" width="40.368" height="46.533" viewBox="0 0 40.368 46.533">
  <defs>
    <linearGradient id="linear-gradient" x1="0.5" x2="0.5" y2="1" gradientUnits="objectBoundingBox">
      <stop offset="0" stop-color="#0f5197"/>
      <stop offset="1" stop-color="#08f"/>
    </linearGradient>
  </defs>
  <path id="Caminho_1488" data-name="Caminho 1488" d="M163.01,26.275a2.885,2.885,0,0,0-2.883-2.883H143.82V18.917a.994.994,0,0,0-1.988,0v4.425H125.525a2.885,2.885,0,0,0-2.883,2.883V49.542a2.885,2.885,0,0,0,2.883,2.883h9.1l-5.171,9.694a.979.979,0,0,0,.4,1.342.738.738,0,0,0,.447.1,1.046,1.046,0,0,0,.895-.547l5.668-10.54h4.971V63.462a.994.994,0,0,0,1.988,0V52.475h4.972l5.668,10.54a1.047,1.047,0,0,0,.895.547,1.445,1.445,0,0,0,.447-.1.979.979,0,0,0,.4-1.342l-5.17-9.645h9.1a2.885,2.885,0,0,0,2.883-2.883Zm-1.988,23.316a.891.891,0,0,1-.895.895h-34.6a.891.891,0,0,1-.895-.895V26.275a.891.891,0,0,1,.895-.895h34.6a.891.891,0,0,1,.895.895Z" transform="translate(-122.642 -17.923)" fill="url(#linear-gradient)"/>
</svg>
