<svg xmlns="http://www.w3.org/2000/svg" width="42.407" height="31.301" viewBox="0 0 42.407 31.301">
  <path id="Caminho_1539" data-name="Caminho 1539" d="M122.876,106.4a8.082,8.082,0,0,0-8.078,8.078v15.145a8.082,8.082,0,0,0,8.078,8.078h26.252a8.082,8.082,0,0,0,8.078-8.078V114.478a8.082,8.082,0,0,0-8.078-8.078Zm0,2.019h26.252a6.023,6.023,0,0,1,6.058,6.058v15.145a6.023,6.023,0,0,1-6.058,6.058H122.876a6.023,6.023,0,0,1-6.058-6.058V114.477A6.023,6.023,0,0,1,122.876,108.419Zm9.008,6.058a1.01,1.01,0,0,0-.931,1.01v13.126h0a1.014,1.014,0,0,0,1.53.884l11.107-6.563a1.01,1.01,0,0,0,0-1.751l-11.107-6.563h0a1.01,1.01,0,0,0-.6-.142Zm1.089,2.793,8.093,4.78-8.093,4.8Z" transform="translate(-114.798 -106.4)" fill="#f80"/>
</svg>
